<?xml version="1.0" standalone="no"?>
<!DOCTYPE svg PUBLIC "-//W3C//DTD SVG 1.1//EN" "http://www.w3.org/Graphics/SVG/1.1/DTD/svg11.dtd" >
<svg xmlns="http://www.w3.org/2000/svg">
<metadata>Generated by IcoMoon</metadata>
<defs>
<font id="icomoon" horiz-adv-x="1024">
<font-face units-per-em="1024" ascent="960" descent="-64" />
<missing-glyph horiz-adv-x="1024" />
<glyph unicode="&#x20;" horiz-adv-x="512" d="" />
<glyph unicode="&#xe900;" glyph-name="drop-down" horiz-adv-x="1877" d="M1643.52 852.992c15.036 13.488 35.013 21.735 56.917 21.735 47.161 0 85.393-38.232 85.393-85.393 0-25.258-10.966-47.954-28.396-63.588l-0.080-0.071-764.928-682.667c-15.019-13.454-34.965-21.679-56.832-21.679s-41.813 8.225-56.913 21.75l0.081-0.071-764.928 682.667c-17.527 15.696-28.504 38.396-28.504 63.659 0 47.13 38.206 85.336 85.336 85.336 21.867 0 41.813-8.225 56.913-21.749l-0.081 0.071 708.096-631.979 707.925 631.979z" />
<glyph unicode="&#xe901;" glyph-name="i-delivery" horiz-adv-x="1667" d="M1550.288 525.872l-43.175 167.603c11.812 2.453 20.647 12.621 20.647 24.767v27.076c0 58.678-49.176 106.401-109.616 106.401h-196.632v55.725c0 28.886-24.195 52.391-53.939 52.391h-1002.282c-29.744 0-53.939-23.504-53.939-52.391v-459.443c0-14.003 11.693-25.338 26.1-25.338 14.431 0 26.1 11.335 26.1 25.338v459.443c0 0.953 0.786 1.667 1.738 1.667h1002.305c0.953 0 1.738-0.714 1.738-1.667v-459.443c0-14.003 11.669-25.338 26.1-25.338 14.407 0 26.1 11.335 26.1 25.338v28.72h308.033c37.864-0.024 70.037-24.171 81.087-57.439h-81.158c-14.407 0-26.1-11.335-26.1-25.338v-54.058c0-43.77 36.673-79.372 81.777-79.372h29.601v-111.497h-68.251c-22.433 62.869-83.968 108.115-156.22 108.115-72.275 0-133.811-45.247-156.22-108.115h-12.574v190.893c0 13.979-11.669 25.338-26.1 25.338-14.407 0-26.1-11.359-26.1-25.338v-190.869h-541.529c-22.433 62.845-83.968 108.115-156.22 108.115-72.275 0-133.834-45.27-156.22-108.115h-150.028c-0.014 0-0.031-0.001-0.048-0.001-0.93 0-1.688 0.741-1.714 1.665v55.75h113.116c14.407 0 26.1 11.359 26.1 25.338 0 14.003-11.669 25.338-26.1 25.338h-250.57c-14.407 0-26.1-11.312-26.1-25.338 0-13.979 11.669-25.338 26.1-25.338h85.254v-55.725c0-28.886 24.219-52.391 53.962-52.391h140.979l-0.048-1.667c0-88.493 74.157-160.458 165.316-160.458 91.136 0 165.293 71.966 165.293 160.458l-0.048 1.667h588.228l-0.048-1.667c0-88.493 74.157-160.458 165.316-160.458 91.136 0 165.293 71.966 165.293 160.458l-0.048 1.667h85.325c14.407 0 26.1 11.359 26.1 25.362v270.241c0 66.727-50.724 122.166-116.688 131.929zM1221.513 801.018h196.632c31.673 0 57.415-25.005 57.415-55.725v-1.691h-254.047v57.415zM1221.513 527.396v165.507h231.948l42.627-165.507h-274.575zM471.564-13.133c-62.393 0-113.116 49.247-113.116 109.782 0 60.559 50.724 109.806 113.116 109.806 62.369 0 113.116-49.247 113.116-109.782 0-60.559-50.748-109.782-113.116-109.782zM1390.306-13.133c-62.369 0-113.116 49.247-113.116 109.782 0 60.559 50.748 109.806 113.116 109.806s113.116-49.247 113.116-109.782c0-60.559-50.748-109.782-113.116-109.782zM1614.777 311.189h-29.577c-16.313 0-29.577 12.86-29.577 28.72v28.696h59.154v-57.415zM471.564 149.016c-29.767 0-53.939-23.481-53.939-52.343 0-28.886 24.195-52.391 53.939-52.391s53.939 23.504 53.939 52.391c0 28.863-24.195 52.343-53.939 52.343zM1390.306 149.016c-29.744 0-53.939-23.481-53.939-52.343 0-28.886 24.195-52.391 53.939-52.391 29.767 0 53.939 23.504 53.939 52.391 0 28.863-24.195 52.343-53.939 52.343zM1084.059 257.131h-389.787c-14.407 0-26.1-11.335-26.1-25.338s11.693-25.338 26.1-25.338h389.787c14.407 0 26.1 11.335 26.1 25.338s-11.669 25.338-26.1 25.338zM415.863 365.223h-334.086c-14.407 0-26.1-11.335-26.1-25.338 0-13.979 11.669-25.338 26.1-25.338h334.11c14.407 0 26.1 11.359 26.1 25.338 0 14.003-11.693 25.338-26.124 25.338zM907.621 709.144c-4.783 4.59-11.289 7.417-18.456 7.417s-13.673-2.826-18.465-7.425l0.009 0.009-232.115-225.304-120.737 117.212c-4.783 4.59-11.289 7.417-18.456 7.417s-13.673-2.826-18.465-7.425l0.009 0.009c-4.718-4.525-7.65-10.88-7.65-17.92s2.932-13.395 7.641-17.912l0.009-0.008 139.193-135.12c5.096-4.953 11.788-7.43 18.456-7.43s13.36 2.477 18.456 7.43l250.57 243.236c4.711 4.524 7.637 10.874 7.637 17.908s-2.927 13.385-7.629 17.9l-0.008 0.008z" />
<glyph unicode="&#xe902;" glyph-name="i-search" horiz-adv-x="1054" d="M830.193 700.175c0 9.005-7.514 16.309-16.76 16.309h-209.122l-3.313 10.767c-4.427 14.366-17.754 24.019-33.16 24.019h-22.438c-9.261 0-16.76-7.304-16.76-16.309s7.499-16.309 16.745-16.309h22.438c0.512 0 0.934-0.301 1.084-0.768l42.15-136.734c6.716-21.79 26.91-36.412 50.281-36.412h116.36c28.943 0 52.495 22.92 52.495 51.080v104.358zM796.672 595.817c0-10.18-8.508-18.477-18.974-18.477h-116.375c-0.070-0.001-0.152-0.001-0.234-0.001-8.38 0-15.481 5.476-17.92 13.045l-0.037 0.133-28.762 93.365h182.302v-88.064zM616.87 525.161c-19.095 0-34.635-15.119-34.635-33.702s15.541-33.687 34.635-33.687c19.095 0 34.62 15.104 34.62 33.687s-15.526 33.702-34.635 33.702zM795.558 525.161c-19.080 0-34.62-15.119-34.62-33.702s15.541-33.687 34.635-33.687c19.080 0 34.605 15.104 34.605 33.687s-15.511 33.702-34.62 33.702zM695.793 959.985c-196.457 0-356.277-155.558-356.277-346.775 0-89.751 35.223-171.64 92.913-233.291l-60.476-58.82-13.417 13.056c-6.342 6.099-14.975 9.856-24.486 9.856s-18.144-3.757-24.497-9.867l0.011 0.011-288.964-281.269c-12.707-12.233-20.6-29.389-20.6-48.389 0-0.009 0-0.017 0-0.026v0.001c0-18.296 7.319-35.494 20.6-48.429 12.788-12.4 30.25-20.044 49.497-20.044 0.090 0 0.181 0 0.271 0.001h-0.014c0.081 0 0.177-0.001 0.272-0.001 19.24 0 36.695 7.638 49.5 20.047l-0.019-0.018 288.979 281.269c6.244 6.031 10.122 14.478 10.122 23.831s-3.877 17.8-10.112 23.821l-0.010 0.009-13.417 13.056 60.446 58.835c63.322-56.139 147.471-90.413 239.676-90.413 196.457 0 356.277 155.558 356.277 346.76 0 191.247-159.834 346.805-356.292 346.805zM385.4 260.352l-288.979-281.239c-6.749-6.491-15.937-10.489-26.059-10.489s-19.31 3.998-26.072 10.5l0.012-0.012c-6.665 6.411-10.806 15.405-10.806 25.367s4.14 18.956 10.794 25.356l0.011 0.011 288.979 281.269c0.204 0.2 0.483 0.323 0.791 0.323s0.587-0.123 0.791-0.323v0l50.537-49.197c0.201-0.195 0.325-0.467 0.325-0.768s-0.125-0.573-0.325-0.768v0zM695.793 299.053c-177.98 0-322.771 140.936-322.771 314.157 0 173.237 144.791 314.157 322.771 314.157s322.771-140.92 322.771-314.157c0-173.222-144.791-314.157-322.771-314.157zM922.232 781.372c-3.153 3.914-7.945 6.396-13.317 6.396-3.826 0-7.358-1.259-10.204-3.386l0.045 0.032c-4.004-2.948-6.573-7.644-6.573-12.939 0-3.761 1.296-7.22 3.466-9.953l-0.025 0.033c76.077-96.828 66.56-234.948-22.136-321.295-88.712-86.332-230.641-95.608-330.12-21.534-2.802 2.096-6.334 3.356-10.161 3.356-5.38 0-10.178-2.49-13.305-6.38l-0.026-0.033c-2.144-2.701-3.44-6.159-3.44-9.92 0-5.295 2.569-9.991 6.528-12.908l0.044-0.031c50.989-37.948 111.797-56.606 172.424-56.606 73.472 0 146.658 27.392 201.743 81.001 100.533 97.852 111.315 254.404 25.058 364.168zM868.563 833.626c-112.776 83.938-273.619 73.442-374.152-24.395-100.533-97.867-111.315-254.419-25.058-364.183 3.313-4.201 8.282-6.4 13.312-6.4 3.554 0 7.138 1.099 10.165 3.358 4.004 2.948 6.573 7.644 6.573 12.939 0 3.761-1.296 7.22-3.466 9.953l0.025-0.033c-76.092 96.828-66.56 234.948 22.136 321.295 88.712 86.347 230.626 95.608 330.089 21.564 2.803-2.099 6.338-3.361 10.169-3.361 5.375 0 10.17 2.486 13.297 6.37l0.026 0.033c2.148 2.702 3.446 6.163 3.446 9.927 0 5.291-2.565 9.983-6.519 12.901l-0.044 0.031z" />
<glyph unicode="&#xe903;" glyph-name="i-select" horiz-adv-x="858" d="M227.238 755.17c-9.080 0-16.459-7.168-16.459-16.008 0-19.411-16.248-35.192-36.216-35.192s-36.216 15.782-36.216 35.192c0 19.426 16.248 35.208 36.216 35.208 9.096 0 16.459 7.168 16.459 16.008s-7.379 16.008-16.459 16.008c-38.129 0-69.135-30.163-69.135-67.208 0-37.060 31.021-67.208 69.135-67.208 38.129 0 69.135 30.148 69.135 67.208 0 8.824-7.364 15.992-16.459 15.992zM227.238 567.416c-9.080 0-16.459-7.168-16.459-16.008 0-19.411-16.248-35.208-36.216-35.208s-36.216 15.812-36.216 35.208c0 19.426 16.248 35.208 36.216 35.208 9.096 0 16.459 7.168 16.459 16.008s-7.379 15.992-16.459 15.992c-38.129 0-69.135-30.148-69.135-67.208 0-37.045 31.021-67.208 69.135-67.208 38.129 0 69.135 30.148 69.135 67.208 0 8.84-7.364 16.008-16.459 16.008zM420.397 533.278h-122.925c-9.080 0-16.459-7.168-16.459-16.008s7.379-16.008 16.459-16.008h122.925c9.096 0 16.459 7.168 16.459 16.008s-7.379 16.008-16.459 16.008zM420.397 601.555h-122.925c-9.080 0-16.459-7.168-16.459-16.008s7.379-16.008 16.459-16.008h122.925c9.096 0 16.459 7.168 16.459 16.008s-7.379 16.008-16.459 16.008zM385.28 345.525h-87.793c-9.096 0-16.474-7.168-16.474-16.008s7.379-16.008 16.459-16.008h87.793c9.111 0 16.474 7.168 16.474 16.008s-7.379 16.008-16.459 16.008zM420.397 413.786h-122.925c-9.080 0-16.459-7.153-16.459-15.992s7.379-16.008 16.459-16.008h122.925c9.096 0 16.459 7.168 16.459 16.008s-7.379 15.992-16.459 15.992zM578.44 721.032h-280.968c-9.080 0-16.459-7.168-16.459-15.992 0-8.84 7.379-16.008 16.459-16.008h280.952c9.096 0 16.474 7.168 16.474 16.008 0 8.824-7.379 15.992-16.459 15.992zM508.19 789.308h-210.718c-9.080 0-16.459-7.168-16.459-15.992 0-8.84 7.379-16.008 16.459-16.008h210.718c9.096 0 16.459 7.168 16.459 16.008 0 8.824-7.364 15.992-16.459 15.992zM227.238 379.648c-9.080 0-16.459-7.153-16.459-15.992 0-19.426-16.248-35.208-36.216-35.208s-36.216 15.797-36.216 35.208c0 19.411 16.248 35.208 36.216 35.208 9.096 0 16.459 7.153 16.459 15.992s-7.379 16.008-16.459 16.008c-38.129 0-69.135-30.148-69.135-67.208 0-37.045 31.021-67.208 69.135-67.208 38.129 0 69.135 30.148 69.135 67.208 0 8.84-7.364 15.992-16.459 15.992zM648.674 960h-597.022c-28.461 0-51.592-22.498-51.592-50.146v-716.89c0-27.648 23.145-50.146 51.592-50.146h298.511c9.080 0 16.459 7.168 16.459 16.008s-7.379 16.008-16.459 16.008h-298.511c-10.3 0-18.673 8.132-18.673 18.131v716.89c0 9.999 8.373 18.146 18.673 18.146h597.022c10.285 0 18.658-8.132 18.658-18.146v-529.137c0-8.84 7.379-16.008 16.459-16.008 9.096 0 16.459 7.168 16.459 16.008v529.137c0 27.648-23.13 50.146-51.576 50.146zM804.096 311.085c-1.821 0.19-3.935 0.298-6.075 0.298-13.773 0-26.497-4.491-36.787-12.088l0.17 0.12c-9.638 15.721-26.082 26.88-45.101 28.732-1.824 0.19-3.941 0.299-6.084 0.299-13.775 0-26.501-4.491-36.793-12.089l0.17 0.12c-9.638 15.736-26.082 26.895-45.101 28.747-1.811 0.187-3.913 0.293-6.040 0.293-10.036 0-19.517-2.372-27.915-6.586l0.359 0.163v203.776c0 16.565-7.243 32.407-19.878 43.52-10.784 9.421-24.989 15.167-40.537 15.167-2.154 0-4.282-0.11-6.378-0.325l0.263 0.022c-30.389-2.967-54.197-29.666-54.197-60.808v-204.303l-48.399-47.044c-25.705-24.998-36.096-60.461-27.753-94.871l36.744-151.793c14.878-61.485 70.671-104.448 135.665-104.448h148.48c76.845 0 139.384 60.777 139.384 135.484v176.806c0 31.142-23.808 57.856-54.197 60.823zM825.359 73.487c0-57.073-47.752-103.484-106.451-103.484h-148.48c-49.649 0-92.25 32.798-103.62 79.782l-36.744 151.778c-5.707 23.537 1.4 47.812 18.989 64.904l25.118 24.425v-55.266c0-8.824 7.379-15.992 16.459-15.992 9.096 0 16.459 7.168 16.459 16.008v304.791c0 14.908 10.797 27.633 24.546 28.973 0.89 0.101 1.922 0.159 2.968 0.159 7.037 0 13.462-2.617 18.356-6.932l-0.030 0.026c5.752-5.045 9.035-12.258 9.035-19.787v-281.63c0-8.84 7.379-16.008 16.474-16.008s16.459 7.168 16.459 16.008v25.6c0 7.529 3.298 14.728 9.035 19.787 5.828 5.12 13.387 7.529 21.293 6.746 13.764-1.355 24.546-14.065 24.546-28.973v-40.222c0-8.84 7.379-16.008 16.459-16.008 9.096 0 16.459 7.168 16.459 16.008v25.6c0 7.529 3.298 14.728 9.035 19.787 5.828 5.12 13.402 7.514 21.293 6.746 13.764-1.355 24.546-14.065 24.546-28.973v-40.237c0-8.84 7.379-15.992 16.474-15.992 9.080 0 16.459 7.153 16.459 15.992v25.6c0 7.529 3.298 14.743 9.035 19.787 5.828 5.12 13.372 7.529 21.293 6.746 13.764-1.34 24.546-14.065 24.546-28.958v-176.791z" />
<glyph unicode="&#xe904;" glyph-name="i-water" horiz-adv-x="1048" d="M488.765 856.21l23.235-42.496 23.235 42.496c1.756 3.171 4.307 5.714 7.388 7.412l0.096 0.049 42.423 23.186-42.472 23.235c-3.178 1.747-5.729 4.29-7.436 7.365l-0.049 0.095-23.186 42.447-23.235-42.496c-1.756-3.171-4.307-5.714-7.388-7.412l-0.096-0.049-42.423-23.186 42.472-23.235c3.145-1.707 5.705-4.291 7.436-7.412zM99.596 472.405c0.572-0.015 1.245-0.023 1.92-0.023 18.201 0 34.988 6.055 48.456 16.26l-0.2-0.146c18.796 13.655 42.331 21.844 67.779 21.844 0.814 0 1.627-0.008 2.437-0.025l-0.121 0.002c0.674 0.014 1.469 0.022 2.265 0.022 25.461 0 49.012-8.179 68.169-22.052l-0.339 0.234c14.555-10.898 32.28-16.579 50.371-16.091 0.586-0.015 1.276-0.024 1.967-0.024 18.25 0 35.085 6.054 48.608 16.263l-0.204-0.148c19.606 13.621 43.912 21.76 70.12 21.76s50.513-8.14 70.528-22.029l-0.409 0.268c4.608-2.901 8.972-5.559 13.556-7.899l16.262 162.426h-560.762l13.605-137.435c12.678-3.901 24.747-9.704 35.767-17.189 13.289-10.016 30.077-16.042 48.273-16.042 0.686 0 1.371 0.009 2.053 0.026l-0.101-0.002zM196.194 758.686l23.235-42.496 23.235 42.496c1.752 3.167 4.294 5.708 7.365 7.412l0.096 0.049 42.447 23.186-42.472 23.235c-3.178 1.747-5.729 4.29-7.436 7.365l-0.049 0.095-23.162 42.447-23.259-42.496c-1.748-3.17-4.291-5.713-7.365-7.412l-0.096-0.049-42.447-23.186 42.472-23.259c3.145-1.707 5.73-4.291 7.436-7.412zM768 496.762c-154.819 0-280.381-125.538-280.381-280.381s125.538-280.381 280.381-280.381 280.381 125.538 280.381 280.381c-0.171 154.77-125.611 280.21-280.381 280.381zM915.017 356.571l-174.47-299.081c-3.304-5.583-9.295-9.268-16.147-9.268-4.465 0-8.564 1.565-11.779 4.175l0.035-0.027-87.235 70.363c-4.328 3.455-7.077 8.731-7.077 14.649 0 10.328 8.372 18.7 18.7 18.7 4.515 0 8.657-1.6 11.888-4.264l-0.032 0.026 70.315-56.71 163.474 280.137c3.205 5.943 9.385 9.914 16.493 9.914 10.314 0 18.676-8.361 18.676-18.676 0-3.685-1.067-7.12-2.909-10.014l0.045 0.076zM535.528 433.445l0.853 8.533c-10.992 4.194-20.459 9.132-29.246 15.008l0.525-0.33c-13.754 9.831-30.912 15.719-49.445 15.719s-35.691-5.888-49.705-15.895l0.26 0.177c-18.468-13.364-41.571-21.375-66.546-21.375-0.708 0-1.414 0.006-2.119 0.019l0.106-0.002c-0.674-0.014-1.468-0.022-2.264-0.022-24.911 0-47.959 7.976-66.73 21.514l0.337-0.231c-13.036 9.819-29.502 15.726-47.348 15.726-0.694 0-1.387-0.009-2.077-0.027l0.102 0.002c-0.605 0.017-1.316 0.026-2.030 0.026-17.836 0-34.292-5.908-47.519-15.873l0.201 0.145c-18.38-13.305-41.376-21.282-66.235-21.282-0.774 0-1.547 0.008-2.318 0.023l0.115-0.002c-0.659-0.014-1.435-0.021-2.214-0.021-24.841 0-47.828 7.938-66.563 21.416l0.339-0.232c-2.905 1.878-6.706 4.118-10.586 6.233l-1.044 0.521 49.103-493.934c1.877-18.968 17.749-33.378 36.62-33.28h342.455c0.006 0 0.013 0 0.019 0 19.078 0 34.762 14.531 36.589 33.128l0.012 0.152 7.314 73.216c-79.701 123.368-63.439 286.135 39.034 390.949z" />
<glyph unicode="&#xe905;" glyph-name="i-batch" horiz-adv-x="1095" d="M1040.67 411.422h-18.265v384.024c0 90.731-73.704 164.554-164.316 164.554-81.015 0-138.978-60.083-145.408-148.075-42.269-8.602-73.637-45.449-73.68-89.631v-0.005c0-10.121 8.192-18.289 18.265-18.289h146.051c10.088 0 18.265 8.178 18.265 18.265 0 0.008 0 0.017 0 0.025v-0.001c-0.040 43.655-30.648 80.149-71.572 89.237l-0.608 0.113c5.311 57.963 39.46 111.783 108.687 111.783 70.489 0 127.809-57.415 127.809-128v-384h-549.555c-8.812 41.978-45.485 73.061-89.435 73.156h-0.391c-16.733 22.207-43.023 36.439-72.642 36.531h-0.015c-35.112-0.183-65.52-20.136-80.68-49.288l-0.24-0.507c-13.346 8.303-29.541 13.229-46.886 13.241h-0.003c-44.056 0-80.967-31.482-89.445-73.156h-1.834c-29.452-1.096-52.911-25.236-52.911-54.855s23.46-53.759 52.812-54.852l0.1-0.003h22.266l48.819-195.608c14.236-56.116 64.298-96.97 123.903-96.97 0.034 0 0.068 0 0.102 0h12.711l-23.314-46.675c-1.189-2.362-1.885-5.148-1.885-8.097 0-10.086 8.144-18.271 18.215-18.336h0.006c0.003 0 0.007 0 0.011 0 7.12 0 13.288 4.073 16.301 10.017l0.048 0.104 31.434 63.012h506.904l31.458-63.012c3.066-6.040 9.232-10.107 16.348-10.107 10.093 0 18.275 8.182 18.275 18.275 0 2.977-0.712 5.788-1.975 8.272l0.048-0.104-23.552 47.128c57.375 2.303 104.82 42.208 118.497 95.635l0.192 0.883 48.819 195.608h22.266c29.452 1.096 52.911 25.236 52.911 54.855s-23.46 53.759-52.812 54.852l-0.1 0.003zM1040.67 338.289h-985.898c-10.101 0-18.289 8.188-18.289 18.289s8.188 18.289 18.289 18.289v0h985.898c10.101 0 18.289-8.188 18.289-18.289s-8.188-18.289-18.289-18.289v0zM654.884 626.605c6.573 0 11.907 8.525 11.907 19.051v9.526c0 10.526-5.334 19.051-11.907 19.051s-11.907-8.525-11.907-19.051v-9.526c0-10.526 5.334-19.051 11.907-19.051zM654.884 555.163c6.573 0 11.907 6.763 11.907 15.146v17.337c0 8.335-5.334 15.146-11.907 15.146s-11.907-6.787-11.907-15.146v-17.337c0-8.383 5.334-15.146 11.907-15.146zM654.884 483.721c6.573 0 11.907 8.525 11.907 19.051v9.526c0 10.526-5.334 19.051-11.907 19.051s-11.907-8.525-11.907-19.051v-9.526c0-10.526 5.334-19.051 11.907-19.051zM726.326 626.605c6.573 0 11.907 8.525 11.907 19.051v9.526c0 10.526-5.334 19.051-11.907 19.051s-11.907-8.525-11.907-19.051v-9.526c0-10.526 5.334-19.051 11.907-19.051zM714.419 570.308c0-8.383 5.334-15.146 11.907-15.146s11.907 6.763 11.907 15.146v17.337c0 8.335-5.334 15.146-11.907 15.146s-11.907-6.787-11.907-15.146v-17.337zM714.419 502.772c0-10.526 5.334-19.051 11.907-19.051s11.907 8.525 11.907 19.051v9.526c0 10.526-5.334 19.051-11.907 19.051s-11.907-8.525-11.907-19.051v-9.526zM797.767 626.605c6.573 0 11.907 8.525 11.907 19.051v9.526c0 10.526-5.334 19.051-11.907 19.051s-11.907-8.525-11.907-19.051v-9.526c0-10.526 5.334-19.051 11.907-19.051zM785.86 570.308c0-8.383 5.334-15.146 11.907-15.146s11.907 6.763 11.907 15.146v17.337c0 8.335-5.334 15.146-11.907 15.146s-11.907-6.787-11.907-15.146v-17.337zM785.86 502.772c0-10.526 5.334-19.051 11.907-19.051s11.907 8.525 11.907 19.051v9.526c0 10.526-5.334 19.051-11.907 19.051s-11.907-8.525-11.907-19.051v-9.526z" />
<glyph unicode="&#xe906;" glyph-name="invalid-name" horiz-adv-x="1099" d="M887.583 135.805v130.123h169.085v-130.123h-169.085zM253.602 135.805h-42.259c-141.262 17.683-211.344 100.777-211.344 216.888 0 142.96 66.685 229.876 169.085 260.271h84.517v-130.123h-42.259c-60.891-14.985-85.891-49.951-84.542-130.123-1.349-49.552 21.179-77.599 84.542-86.765h42.259v-130.148zM887.583 615.611c65.136 8.192 85.666 35.34 84.542 84.118 1.349 92.684-30.795 125.053-126.801 130.123h-803.066v130.148h803.066c167.337-9.141 253.602-96.006 253.602-260.271 0-121.531-73.853-201.303-211.344-214.84v130.697zM680.086 18.27v-82.27h-42.259v82.27h-42.259v-82.27h-42.259v82.27h-42.259v-82.27h-42.284v82.27h-42.259v-82.27h-42.259v82.27h-42.284v-82.27h-42.259v699.317h549.463v-699.317h-42.259v82.27h-42.284v-82.27h-42.259v82.27h-42.259z" />
<glyph unicode="&#xe907;" glyph-name="i-toilet" horiz-adv-x="1101" d="M995.533 634.47l-0.282 4.531c54.909 31.422 91.385 89.534 91.699 156.192v0.045c0.001 0.214 0.001 0.468 0.001 0.722 0 65.632-35.639 122.939-88.621 153.626l-0.853 0.456-0.461-143.258-89.139-51.661-88.806 51.123 0.384 143.232c-54.194-31.578-90.101-89.313-90.368-155.456v-0.038c-0.001-0.211-0.001-0.461-0.001-0.711 0-68.909 39.225-128.656 96.565-158.132l0.998-0.466v-0.794l-1.869-589.44c-0.001-0.148-0.001-0.323-0.001-0.498 0-23.095 9.352-44.005 24.476-59.151l-0.001 0.001c15.232-15.258 36.352-24.499 59.674-24.525 46.722 0.188 84.548 38.014 84.736 84.718v0.018l1.869 589.466zM882.022 7.296c-5.769 5.826-9.334 13.844-9.334 22.694 0 8.94 3.637 17.030 9.512 22.872l0.001 0.001c5.838 5.889 13.93 9.534 22.874 9.534 8.855 0 16.874-3.573 22.696-9.357l-0.002 0.002c12.595-12.595 12.544-32.947-0.128-45.619-5.838-5.889-13.93-9.534-22.873-9.534-8.88 0-16.921 3.594-22.746 9.407l0.001-0.001zM698.189 576h-628.378c-38.554 0-69.811-28.672-69.811-64s31.258-64 69.811-64h628.378c38.554 0 69.811 28.672 69.811 64s-31.258 64-69.811 64zM102.4 396.8c15.744-158.157 135.962-281.6 281.6-281.6s265.856 123.443 281.6 281.6h-563.2zM637.235 8.781l-35.84 80.819c-61.788-37.519-136.479-59.726-216.356-59.726-0.365 0-0.731 0-1.096 0.001h0.057c-79.872 0-154.496 21.939-217.421 59.725l-35.814-80.819c-4.659-10.522-3.379-22.528 3.405-32s18.176-15.181 30.413-15.181h438.81c12.211 0 23.629 5.683 30.413 15.155s8.064 21.504 3.405 32.026zM634.317 960h-500.634c-17.28 0-31.283-15.027-31.283-33.613v-324.787h563.2v324.787c0 18.586-14.003 33.613-31.283 33.613zM509.133 758.4h-62.566c-17.28 0-31.283 15.027-31.283 33.613 0 18.56 14.003 33.587 31.283 33.587h62.592c17.28 0 31.283-15.027 31.283-33.587 0-18.586-14.003-33.613-31.283-33.613z" />
<glyph unicode="&#xe908;" glyph-name="i-phone" d="M690.176 928.188c-291.021-8.465-449.877-233.745-449.877-435.132 0-205.21 144.384-307.2 264.875-307.2 120.559 0 265.557 89.771 265.557 260.983 0 171.281-114.688 226.509-209.442 268.288-13.175 99.396 59.733 168.414 138.172 209.374 191.276-77.152 323.805-261.248 323.805-476.297 0-282.553-228.787-511.669-511.214-512.204h-0.051c-282.548 0.293-511.485 229.411-511.485 512 0 282.77 229.23 512 512 512 63.792 0 124.858-11.666 181.183-32.982l-3.522 1.17z" />
<glyph unicode="&#xe909;" glyph-name="i-fire" horiz-adv-x="866" d="M52.513 438.469c0 118.259 57.502 222.838 145.513 291.735 18.773 12.603 32.768 0 27.018-9.19-60.967-140.235-16.489-278.055 86.83-305.625-30.457 71.155-44.636 151.683-35.262 234.286 13.995 121.83 75.146 226.409 163.131 299.848 8.245 6.932 16.489 11.422 22.239 10.293 5.96-1.103 9.4-4.49 7.089-12.577-7.089-24.208-11.684-49.362-13.995-74.726-11.684-102.295 11.71-198.814 59.812-281.416 72.651 0 103.319 82.786 111.38 140.235 0 13.706 10.555 22.922 31.639 6.958 93.919-67.768 156.042-175.734 156.042-298.693 0-205.588-170.037-372.316-381.296-372.316-209.92-1.129-380.14 165.599-380.14 371.187zM825.502 14.769h-783.57c-23.289 0-41.931-17.776-41.931-39.91 0-22.187 18.668-38.859 41.931-38.859h783.754c23.237 0 40.776 17.776 40.776 38.859 0 22.134-17.539 39.91-40.96 39.91z" />
<glyph unicode="&#xe90a;" glyph-name="i-radiator" horiz-adv-x="1321" d="M792.774 960c-54.734 0-99.097-50.804-99.097-113.466v-797.068c0-62.662 44.362-113.466 99.097-113.466s99.097 50.804 99.097 113.466v797.068c0 62.662-44.362 113.466-99.097 113.466zM193.899 960c-57.146 0-103.391-50.804-103.391-113.466v-42.546h-90.508v-85.091h90.508v-669.432c0-62.662 46.245-113.466 103.391-113.466 57.080 0 103.391 50.804 103.391 113.466v797.068c0 62.662-46.311 113.466-103.391 113.466zM495.484 960c-54.734 0-99.097-50.804-99.097-113.466v-797.068c0-62.662 44.362-113.466 99.097-113.466s99.097 50.804 99.097 113.466v797.068c0 62.662-44.362 113.466-99.097 113.466zM1250.502 906.091v-102.103h-70.788v42.546c0 62.662-42.248 113.466-94.373 113.466-52.092 0-94.373-50.804-94.373-113.466v-797.068c0-62.662 42.281-113.466 94.373-113.466 52.125 0 94.373 50.804 94.373 113.466v669.399h141.576v187.227h-70.788z" />
<glyph unicode="&#xe90b;" glyph-name="i-drop" horiz-adv-x="953" d="M685.127 114.509c-12.002-18.575-18.337-40.007-18.337-62.035 0-64.226 53.415-116.474 119.070-116.474s119.070 52.248 119.070 116.45c0 22.147-6.382 43.651-18.456 62.297l-68.346 112.831c-6.736 10.871-18.601 18.004-32.131 18.004-0.048 0-0.096 0-0.144 0h0.007c-13.241 0-25.529-6.835-32.268-18.003l-68.489-113.069zM36.983 741.269h242.045v5.168c0 20.885 16.551 37.817 37.007 37.817h55.463v32.768h-151.338c-20.432 0-37.007 16.908-37.007 37.817v21.433c0 46.175 36.769 83.73 81.968 83.73h336.991c45.199 0 81.968-37.555 81.968-83.73v-21.433c0-20.885-16.575-37.817-37.031-37.817h-151.338v-32.768h55.463c20.432 0 37.007-16.908 37.007-37.817v-5.168h98.709c134.025 0 243.069-111.402 243.069-248.356v-127.047c13.288-5.739 22.599-19.17 22.599-34.84 0-20.885-16.575-37.817-37.007-37.817h-219.112c-20.456 0-37.031 16.932-37.031 37.817 0 14.717 8.24 27.434 20.242 33.697v85.373c0 22.337-17.765 40.508-39.626 40.508h-51.843v-12.86c0-20.861-16.575-37.793-37.007-37.793h-235.115c-20.456 0-37.007 16.908-37.007 37.817v1.667h-242.045c-20.432 0-37.007 16.908-37.007 37.793v186.201c0 20.885 16.575 37.817 37.007 37.817z" />
<glyph unicode="&#xe90c;" glyph-name="i-clock" d="M544 428.672c1.419-1.052 2.673-2.144 3.836-3.324l140.164-140.1c5.558-5.749 8.983-13.59 8.983-22.231 0-17.673-14.327-32-32-32-8.641 0-16.482 3.425-22.24 8.991l-140.151 140.151c-2.187 2.174-4.060 4.659-5.548 7.385l-0.084 0.167c-10.168 5.495-16.96 16.077-16.96 28.245 0 0.015 0 0.030 0 0.045v-0.002 320c0 17.673 14.327 32 32 32s32-14.327 32-32v0-307.328zM512-64c-282.77 0-512 229.23-512 512s229.23 512 512 512v0c282.77 0 512-229.23 512-512s-229.23-512-512-512v0zM512 0c247.424 0 448 200.576 448 448s-200.576 448-448 448v0c-247.424 0-448-200.576-448-448s200.576-448 448-448v0z" />
<glyph unicode="&#xe90d;" glyph-name="i-mail" horiz-adv-x="1339" d="M1171.692 960h-1004.308c-92.475 0-167.385-76.406-167.385-170.693v-682.614c0-94.287 74.91-170.693 167.385-170.693h1004.308c92.475 0 167.385 76.406 167.385 170.693v682.614c0 94.287-74.91 170.693-167.385 170.693zM896.158 504.556l354.304 309.563c2.442-7.877 4.962-15.99 4.962-24.812v-682.614c0-5.908-2.284-11.185-3.387-16.778l-355.879 414.641zM1171.692 874.693c5.514 0 10.476-2.206 15.754-3.308l-517.908-452.529-517.829 452.529c5.199 1.103 10.082 3.308 15.675 3.308h1004.308zM87.040 89.994c-1.182 5.593-3.308 10.791-3.308 16.699v682.614c0 8.822 2.442 16.857 4.884 24.891l354.225-309.563-355.801-414.641zM167.385 21.307c-8.428 0-16.148 2.521-23.867 4.962l362.89 422.833 135.877-118.784c7.206-6.444 16.77-10.383 27.254-10.383s20.049 3.939 27.294 10.418l135.837 118.749 362.89-422.833c-7.719-2.363-15.36-4.962-23.867-4.962h-1004.308z" />
<glyph unicode="&#xe90e;" glyph-name="i-yt" d="M512 960c282.351 0 512-229.683 512-512 0-282.283-229.717-512-512-512-282.317 0-512 229.717-512 512 0 282.317 229.683 512 512 512zM759.125 421.547c-6.539 25.912-28.329 45.271-55.052 48.104l-0.278 0.024c-63.488 6.758-127.761 6.827-191.693 6.758-64 0.034-128.273 0-191.761-6.758-26.987-2.871-48.762-22.226-55.202-47.688l-0.094-0.44c-8.943-37.103-9.045-77.585-9.045-115.78 0-38.161 0-78.643 8.909-115.746 6.539-25.912 28.329-45.271 55.052-48.104l0.278-0.024c63.488-6.793 127.761-6.827 191.727-6.793 64 0 128.239 0 191.727 6.827 26.993 2.852 48.779 22.196 55.236 47.654l0.095 0.44c8.943 37.103 8.977 77.585 8.977 115.746 0 38.229 0.068 78.677-8.875 115.78zM402.057 392.806h-37.069v-188.348h-34.441v188.348h-36.318v30.822h107.861v-30.822zM495.548 204.459h-30.993v17.818c-12.288-13.483-23.962-20.070-35.328-20.070-10.001 0-16.862 3.857-19.934 12.117-1.707 4.949-2.731 12.766-2.731 24.303v129.161h30.925v-120.252c0-6.929 0-10.547 0.273-11.503 0.751-4.608 3.072-6.929 7.236-6.929 6.212 0 12.698 4.574 19.558 13.858v124.826h30.959v-163.328zM613.035 253.44c0-15.121-1.024-26.010-3.106-32.905-4.164-12.151-12.425-18.364-24.747-18.364-10.991 0-21.606 5.837-31.949 18.091v-15.838h-30.959v219.17h30.959v-71.578c9.967 11.776 20.582 17.749 31.949 17.749 12.322 0 20.617-6.212 24.747-18.432 2.048-6.588 3.106-17.408 3.106-32.836v-65.058zM729.805 280.678h-61.815v-28.945c0-15.121 5.188-22.665 15.804-22.665 7.646 0 12.083 3.959 13.824 11.878 0.307 1.604 0.683 8.192 0.683 20.036h31.573v-4.335c0-9.523-0.341-16.077-0.649-19.046-1.024-6.554-3.482-12.493-7.236-17.749-8.533-11.844-21.265-17.681-37.41-17.681-16.179 0-28.501 5.564-37.444 16.725-6.588 8.192-9.933 21.026-9.933 38.4v57.242c0 17.442 2.97 30.208 9.557 38.468 8.943 11.196 21.265 16.725 37.069 16.725 15.497 0 27.819-5.53 36.489-16.725 6.485-8.26 9.557-21.026 9.557-38.468v-33.792zM696.9 334.199c-9.489 0-14.268-5.7-14.268-17.067v-11.401h28.433v11.401c0 11.366-4.779 17.067-14.165 17.067zM555.588 334.199c-5.018 0-10.103-2.321-15.189-7.168v-99.328c5.12-4.949 10.172-7.305 15.189-7.305 8.806 0 13.278 7.305 13.278 22.016v69.53c0 14.677-4.471 22.255-13.278 22.255zM590.609 504.866c10.82 0 22.084 6.758 33.894 20.651v-18.364h29.696v168.414h-29.696v-128.683c-6.588-9.557-12.8-14.268-18.773-14.268-3.959 0-6.281 2.389-6.929 7.134-0.341 1.024-0.341 4.71-0.341 11.844v123.972h-29.594v-133.12c0-11.913 0.99-19.968 2.628-25.054 2.97-8.533 9.557-12.493 19.115-12.493zM354.099 597.026v-92.16h32.939v92.16l39.595 135.373h-33.28l-22.494-89.361-23.347 89.361h-34.611c6.929-21.094 14.165-42.291 21.094-63.386 10.581-31.744 17.169-55.637 20.139-72.021zM497.766 504.866c14.438 0 25.702 5.666 33.69 17.033 6.042 8.329 8.943 21.436 8.943 39.117v58.3c0 17.749-2.901 30.788-8.943 39.185-7.987 11.366-19.217 17.067-33.69 17.067-14.404 0-25.668-5.7-33.655-17.067-6.144-8.397-9.045-21.402-9.045-39.185v-58.266c0-17.681 2.901-30.788 9.045-39.117 7.987-11.366 19.251-17.067 33.655-17.067zM483.977 625.323c0 15.36 4.437 23.040 13.79 23.040 9.284 0 13.756-7.646 13.756-23.040v-69.973c0-15.428-4.437-23.108-13.756-23.108s-13.79 7.68-13.79 23.074v69.973z" />
<glyph unicode="&#xe90f;" glyph-name="i-tw" d="M512 960c-282.317 0-512-229.683-512-512 0-282.283 229.683-512 512-512 282.283 0 512 229.717 512 512 0 282.317-229.649 512-512 512zM740.42 565.18c0.205-5.086 0.341-10.172 0.341-15.292 0-155.75-118.511-335.258-335.326-335.258-66.56 0-128.512 19.456-180.634 52.907 8.52-1.088 18.378-1.709 28.38-1.709 55.372 0 106.301 19.026 146.605 50.898l-0.496-0.378c-51.362 0.985-94.607 34.649-109.876 81.018l-0.238 0.834c6.706-1.344 14.415-2.113 22.303-2.113 10.995 0 21.64 1.494 31.745 4.289l-0.835-0.197c-54.31 11.247-94.549 58.691-94.549 115.534 0 0.003 0 0.005 0 0.008v0c0 0.512 0 1.024 0.068 1.502 15.872-8.806 34.031-14.131 53.35-14.746-31.794 21.421-52.429 57.288-52.429 97.976 0 0.043 0 0.087 0 0.13v-0.007c0 21.641 5.803 41.882 15.94 59.29 58.365-71.434 144.715-118.102 242.076-123.153l0.817-0.034c-2.012 8.149-3.166 17.504-3.166 27.129 0 65.075 52.754 117.828 117.828 117.828 33.968 0 64.578-14.373 86.082-37.37l0.062-0.067c28.241 5.646 53.334 15.572 75.947 29.195l-1.059-0.592c-9.161-27.78-27.499-50.434-51.356-64.898l-0.527-0.297c25.095 3.019 47.95 9.547 69.126 19.131l-1.474-0.597c-16.073-23.921-35.56-44.114-58.028-60.456l-0.681-0.472z" />
<glyph unicode="&#xe910;" glyph-name="i-t" d="M512 960c282.351 0 512-229.683 512-512 0-282.283-229.717-512-512-512-282.317 0-512 229.717-512 512 0 282.317 229.683 512 512 512zM244.531 453.461l115.405-43.657 44.715-145.579c1.715-5.634 6.865-9.662 12.956-9.662 3.269 0 6.268 1.161 8.605 3.093l-0.023-0.018 64.341 53.146c3.263 2.725 7.501 4.38 12.127 4.38 4.236 0 8.148-1.388 11.305-3.733l-0.051 0.036 116.053-85.367c2.212-1.634 4.992-2.615 8.002-2.615 6.561 0 12.034 4.663 13.283 10.856l0.015 0.087 84.992 414.345c0.201 0.877 0.316 1.885 0.316 2.919 0 7.541-6.113 13.653-13.653 13.653-1.758 0-3.439-0.332-4.982-0.938l0.093 0.032-473.634-185.173c-5.16-2.094-8.733-7.068-8.733-12.876 0-5.859 3.637-10.87 8.776-12.897l0.094-0.033zM397.449 433.050l225.519 140.8c4.062 2.526 8.226-3.072 4.779-6.315l-186.163-175.343c-6.359-6.024-10.697-14.125-11.924-23.213l-0.022-0.202-6.349-47.616c-0.853-6.349-9.66-6.997-11.401-0.819l-24.371 86.835c-0.557 1.891-0.877 4.064-0.877 6.312 0 8.194 4.259 15.394 10.683 19.506l0.093 0.056z" />
<glyph unicode="&#xe911;" glyph-name="i-fb" d="M512 960c-282.317 0-512-229.683-512-512 0-282.283 229.683-512 512-512 282.283 0 512 229.717 512 512 0 282.317-229.649 512-512 512zM639.317 429.978h-83.285v-296.892h-123.426v296.892h-58.709v104.926h58.709v67.891c0 48.606 23.108 124.553 124.587 124.553l91.443-0.341v-101.854h-66.389c-10.82 0-26.18-5.427-26.18-28.604v-61.645h94.037l-10.786-104.926z" />
<glyph unicode="&#xe912;" glyph-name="right-chevron-1" horiz-adv-x="717" d="M392.294 448l-391.168-391.168 120.73-120.832 512 512-512 512-120.832-120.832z" />
<glyph unicode="&#xe913;" glyph-name="group-copy" horiz-adv-x="8141" d="M467.2 620.39c0-71.088-57.628-128.717-128.717-128.717s-128.717 57.628-128.717 128.717v0c0 71.088 57.628 128.717 128.717 128.717s128.717-57.628 128.717-128.717v0zM814.592 620.39c0.016-0.764 0.026-1.664 0.026-2.567 0-71.088-57.628-128.717-128.717-128.717s-128.717 57.628-128.717 128.717c0 0.903 0.009 1.803 0.028 2.701l-0.002-0.134c0 71.088 57.628 128.717 128.717 128.717s128.717-57.628 128.717-128.717v0zM467.2 275.661c0-71.088-57.628-128.717-128.717-128.717s-128.717 57.628-128.717 128.717v0c0 71.088 57.628 128.717 128.717 128.717s128.717-57.628 128.717-128.717v0zM814.592 275.661c0.016-0.764 0.026-1.664 0.026-2.567 0-71.088-57.628-128.717-128.717-128.717s-128.717 57.628-128.717 128.717c0 0.903 0.009 1.803 0.028 2.701l-0.002-0.134c0 71.088 57.628 128.717 128.717 128.717s128.717-57.628 128.717-128.717v0zM512.154 938.65c-270.643 0-490.803-220.109-490.803-490.65s220.16-490.65 490.803-490.65c270.643 0 490.854 220.109 490.854 490.65s-220.16 490.65-490.854 490.65zM512.154-64c-282.419 0-512.154 229.683-512.154 512s229.734 512 512.154 512 512.205-229.683 512.205-512-229.786-512-512.205-512zM1509.53 222.72v13.312c15.872 0.666 27.187 2.406 34.15 5.222 6.947 2.866 12.268 8.472 14.691 15.435l0.055 0.181c2.867 7.578 4.301 19.712 4.301 36.352v330.035c0 16.691-1.434 28.826-4.301 36.352-2.477 7.144-7.799 12.75-14.574 15.553l-0.171 0.063c-6.963 2.816-18.33 4.557-34.15 5.222v13.312c18.176-1.331 44.851-1.946 80.128-1.946 15.77 0 35.43 0.205 58.88 0.614 23.552 0.461 36.864 0.666 40.090 0.666 44.646 0 78.848-9.523 102.656-28.57s35.738-44.39 35.738-76.032c0-25.549-7.936-48.486-23.859-68.864-15.872-20.326-41.165-35.942-75.776-46.746v-1.331c24.986-3.43 46.438-9.062 64.41-16.896 17.92-7.782 31.795-17.203 41.626-28.262 9.83-11.008 16.896-22.682 21.299-34.918s6.554-25.498 6.554-39.782c0-38.298-14.131-69.376-42.445-93.184-28.262-23.859-66.662-35.789-115.149-35.789-3.584 0-18.125 0.358-43.52 1.024-20.426 0.585-44.685 0.938-69.018 0.973h-0.204c-35.891 0-62.976-0.666-81.408-1.997zM1623.603 293.222c0-23.142 3.072-38.144 9.267-45.005 6.195-6.81 19.558-10.24 40.038-10.24 81.818 0 122.726 38.912 122.726 116.634 0 34.867-9.37 61.44-28.058 79.616s-48.282 27.29-88.883 27.29h-55.091v-168.294zM1623.603 472.883h44.186c18.586 0 34.406 2.867 47.411 8.602 13.056 5.734 23.040 13.824 29.952 24.371 6.963 10.496 11.878 21.811 14.746 33.946 2.867 12.083 4.352 25.958 4.352 41.574 0 33.331-7.27 58.163-21.811 74.547-14.49 16.333-37.888 24.525-70.144 24.525-19.866 0-32.922-3.738-39.27-11.264-6.298-7.424-9.421-22.733-9.421-45.926v-150.374zM1909.658 222.72v13.978c18.381 0 31.283 3.43 38.758 10.24s11.264 19.354 11.264 37.53v208.23c0 20.531-3.738 35.482-11.11 44.8-7.322 9.318-20.326 13.978-38.912 13.978v13.978c13.67-1.331 27.238-1.946 40.704-1.946 27.75 0 50.483 3.021 68.25 9.062v-83.098c7.885 22.118 20.429 41.779 37.632 59.136 17.203 17.306 36.352 25.958 57.498 25.958 17.51 0 31.846-5.069 43.059-15.258 11.264-10.189 16.845-22.528 16.845-37.018 0.011-0.37 0.017-0.805 0.017-1.242 0-10.85-3.875-20.794-10.316-28.526l0.058 0.072c-6.242-7.482-15.57-12.208-26.001-12.208-0.435 0-0.869 0.008-1.3 0.025l0.062-0.002c-0.236-0.006-0.515-0.009-0.794-0.009-9.209 0-17.601 3.504-23.913 9.251l0.029-0.026c-6.332 5.906-10.279 14.297-10.279 23.61 0 0.556 0.014 1.108 0.042 1.657l-0.003-0.077c0 14.49 7.475 26.522 22.426 36.045-3.021 4.352-7.578 6.502-13.824 6.502-13.005 0-25.446-4.147-37.274-12.493-11.854-8.397-21.62-18.914-28.926-31.077l-0.258-0.462c-7.085-11.654-13.22-25.1-17.711-39.277l-0.362-1.325c-4.067-12.046-6.506-25.928-6.706-40.35l-0.001-0.098v-140.954c0-20.582 5.734-34.816 17.254-42.701 11.571-7.936 28.979-11.878 52.224-11.878v-13.978c-26.826 1.096-62.077 2.039-97.427 2.57l-3.437 0.041c-11.571 0-37.376-0.87-77.568-2.56zM2201.498 222.72v13.978c18.381 0 31.283 3.43 38.758 10.24s11.264 19.354 11.264 37.53v208.23c0 20.531-3.738 35.482-11.11 44.8-7.322 9.318-20.326 13.978-38.912 13.978v13.978c13.67-1.331 27.238-1.946 40.704-1.946 27.75 0 50.483 3.021 68.25 9.062v-288.102c0-18.176 3.738-30.72 11.213-37.53s20.378-10.24 38.758-10.24v-13.978c-21.919 1.186-49.647 2.129-77.493 2.586l-1.969 0.025c-12.8 0-39.322-0.87-79.462-2.56zM2234.522 689.152c-0.002 0.144-0.003 0.314-0.003 0.484 0 11.524 4.7 21.949 12.288 29.465l0.003 0.003c7.298 7.794 17.651 12.65 29.139 12.65 0.196 0 0.391-0.001 0.587-0.004h-0.030c11.264 0 21.094-4.198 29.44-12.646s12.493-18.432 12.493-29.901c0.003-0.178 0.004-0.389 0.004-0.6 0-11.557-4.787-21.997-12.486-29.444l-0.011-0.011c-7.353-7.704-17.701-12.494-29.168-12.494-0.114 0-0.227 0-0.34 0.001h0.017c-0.146-0.002-0.318-0.003-0.49-0.003-11.447 0-21.775 4.792-29.088 12.479l-0.016 0.017c-7.621 7.492-12.344 17.912-12.344 29.435 0 0.218 0.002 0.435 0.005 0.652v-0.033zM2393.754 222.72v13.978c18.33 0 31.232 3.43 38.707 10.24s11.264 19.354 11.264 37.53v208.23c0 20.531-3.738 35.482-11.059 44.8-7.373 9.318-20.378 13.978-38.912 13.978v13.978c13.619-1.331 27.187-1.946 40.653-1.946 27.75 0 50.483 3.021 68.25 9.062v-78.285c10.854 28.16 26.112 48.589 45.619 61.235 18.218 11.917 40.53 19.007 64.498 19.007 0.581 0 1.161-0.004 1.74-0.012l-0.088 0.001c30.566 0 53.76-8.294 69.53-24.986 8.141-9.114 13.926-20.326 17.459-33.638s5.274-31.232 5.274-53.76v-177.664c0-18.176 3.738-30.72 11.264-37.53 7.424-6.81 20.378-10.24 38.707-10.24v-13.978c-21.651 1.174-49.145 2.116-76.755 2.584l-2.042 0.027c-12.186 0-36.608-0.87-73.37-2.56v13.926c16.026 0 27.238 3.43 33.638 10.24s9.626 19.354 9.626 37.53v192.307c0 9.318-0.307 17.306-0.973 24.064-0.776 7.649-2.239 14.634-4.351 21.33l0.203-0.748c-1.838 6.56-4.868 12.26-8.871 17.13l0.064-0.081c-4.216 4.635-9.419 8.293-15.285 10.653l-0.28 0.099c-6.571 2.669-14.193 4.218-22.178 4.218-0.537 0-1.073-0.007-1.607-0.021l0.079 0.002c-27.136 0-49.203-11.571-66.304-34.765-17.101-23.142-25.6-51.968-25.6-86.374v-147.814c0-18.176 3.174-30.72 9.574-37.53s17.766-10.24 33.997-10.24v-13.978c-20.491 1.208-46.204 2.15-72.039 2.589l-1.689 0.023c-12.339 0-38.605-0.87-78.797-2.56zM2779.085 158.72c0 15.206 7.885 29.798 23.552 43.878 15.718 14.080 35.328 26.522 58.778 37.376h-2.202c-0.653-0.016-1.423-0.026-2.194-0.026-14.13 0-27.53 3.123-39.549 8.715l0.578-0.242c-7.517 3.368-13.611 8.786-17.719 15.545l-0.098 0.174c-4.231 7.133-6.732 15.724-6.732 24.898 0 0.553 0.009 1.103 0.027 1.652l-0.002-0.080c0 15.206 6.246 29.594 18.739 43.213 12.493 13.67 33.587 27.29 63.283 40.96-40.602 16.026-60.928 47.616-60.928 94.822 0 23.603 5.427 43.418 16.23 59.443 10.752 16.026 25.037 27.648 42.752 34.765 17.715 7.168 38.4 10.752 62.157 10.752 16.896 0 32.358-1.997 46.438-5.888 4.506 24.678 12.186 44.39 23.040 59.136 11.776 14.694 26.726 22.067 44.902 22.067 10.854 0 19.354-3.226 25.446-9.728s9.114-14.848 9.114-25.037c0.005-0.214 0.008-0.466 0.008-0.718 0-17.164-13.914-31.078-31.078-31.078-0.111 0-0.222 0.001-0.332 0.002h0.017c-11.11 0-19.098 3.379-24.064 10.24-4.864 6.81-8.499 17.357-10.854 31.642-6.4-5.837-12.288-16.691-17.613-32.461-3.43-11.725-5.632-20.89-6.707-27.648 42.035-15.77 63.078-47.616 63.078-95.488 0-35.072-11.162-61.389-33.485-78.95-22.323-17.51-51.61-26.266-87.91-26.266-18.176 0-34.304 2.048-48.384 6.144-15.551-8.016-28.94-16.809-41.303-26.819l0.445 0.349c-9.472-8.141-14.234-16.845-14.234-26.112 0-14.746 10.445-22.118 31.386-22.118h154.112c22.835 0 41.37-4.864 55.552-14.643 14.234-9.728 21.299-25.446 21.299-47.104 0-12.083-2.253-24.371-6.707-36.864-5.385-14.078-12.653-26.218-21.655-36.842l0.151 0.183c-10.206-12.313-21.965-22.851-35.091-31.479l-0.595-0.367c-14.927-9.553-32.212-17.239-50.634-22.136l-1.283-0.29c-19.592-5.469-42.090-8.613-65.322-8.613-0.849 0-1.698 0.004-2.545 0.013l0.129-0.001c-22.835 0-44.032 2.202-63.59 6.656-18.553 3.856-34.948 11.086-49.277 21.073l0.433-0.286c-13.005 9.421-19.558 20.634-19.558 33.638zM2832.896 172.698c0-14.285 5.12-26.419 15.258-36.352 10.138-9.984 22.17-16.998 36.198-21.146 13.978-4.096 28.774-6.144 44.339-6.144 29.916 0.022 57.853 8.478 81.566 23.118l-0.67-0.385c11.878 7.373 21.504 17.203 28.826 29.542 7.373 12.339 11.059 26.214 11.059 41.574 0 13.005-3.533 22.426-10.547 28.262-7.066 5.888-20.224 8.806-39.424 8.806h-122.061c-13.875-7.168-24.781-16.947-32.666-29.389-7.885-12.493-11.878-25.088-11.878-37.888zM2876.16 469.658c0-33.792 5.12-57.856 15.206-71.987 10.138-14.182 24.934-21.299 44.39-21.299 19.661 0 34.56 7.066 44.698 21.146s15.206 38.093 15.206 72.090c0 33.997-5.12 58.061-15.206 72.141-10.138 14.080-25.088 21.094-44.698 21.094-19.456 0-34.253-7.117-44.39-21.299s-15.206-38.144-15.206-71.936zM3267.328 551.475v13.978c20.48-2.816 41.984-4.25 64.358-4.25 18.79 0 47.206 1.434 85.248 4.25v-13.978c-6.4 0-11.264-0.051-14.438-0.154s-7.168-0.512-12.032-1.331c-3.932-0.418-7.508-1.62-10.678-3.449l0.131 0.069c-5.375-3.884-8.832-10.133-8.832-17.19 0-0.365 0.009-0.727 0.027-1.087l-0.002 0.051c0-7.987 2.765-18.944 8.346-32.768l79.104-198.81 72.397 192.614c4.71 13.005 7.066 23.194 7.066 30.566 0 10.394-3.891 18.074-11.725 23.040-7.782 4.966-20.224 7.987-37.325 9.114v13.312c23.040-1.331 41.472-1.946 55.142-1.946 19.61 0 36.301 0.614 49.971 1.946v-13.312c-9.299-1.258-17.399-5.629-23.378-12.011l-0.020-0.021c-6.861-6.912-13.261-18.534-19.2-34.765l-107.674-285.85-22.426-57.856c-8.294-21.811-17.715-37.427-28.16-46.746-12.39-11.469-29.491-17.203-51.251-17.203-13.056 0-23.706 3.533-32.051 10.547-8.346 7.066-12.493 16.845-12.493 29.389 0 10.598 3.072 19.149 9.267 25.498 6.195 6.4 14.746 9.574 25.6 9.574 0.412 0.017 0.895 0.027 1.38 0.027 8.59 0 16.464-3.066 22.587-8.163l-0.057 0.046c6.298-5.427 9.472-13.107 9.472-23.040 0.010-0.307 0.016-0.669 0.016-1.032 0-12.523-7.103-23.388-17.5-28.784l-0.18-0.085c1.002-0.43 2.168-0.68 3.393-0.68 0.175 0 0.35 0.005 0.522 0.015l-0.024-0.001c24.064 0 42.701 17.306 55.706 51.968l23.398 60.723-119.194 290.406c-12.134 24.934-26.982 37.376-44.544 37.376zM3631.206 393.626c0 25.088 2.56 47.718 7.578 67.891 5.018 20.122 11.93 37.171 20.787 51.149s19.61 25.6 32.205 34.918c12.595 9.318 26.214 16.128 40.858 20.48 13.775 4.1 29.603 6.459 45.982 6.459 0.556 0 1.112-0.003 1.667-0.008l-0.085 0.001c17.101 0 32.922-2.15 47.616-6.502 14.592-4.301 28.16-11.11 40.806-20.48 12.595-9.267 23.347-20.89 32.205-34.867s15.77-31.027 20.787-51.2c5.018-20.122 7.526-42.752 7.526-67.84 0-30.976-3.789-58.214-11.366-81.715s-18.227-42.342-32-56.525c-12.945-13.508-28.646-24.263-46.212-31.374l-0.892-0.319c-16.762-6.588-36.174-10.406-56.477-10.406-0.701 0-1.4 0.005-2.099 0.014l0.106-0.001c-21.35 0-40.858 3.482-58.47 10.394-18.461 7.445-34.162 18.216-47.057 31.695l-0.047 0.049c-13.773 14.131-24.422 32.973-32 56.474s-11.418 50.688-11.418 81.715zM3695.002 393.626c0-56.986 7.629-99.021 22.886-126.208s36.045-40.755 62.31-40.755c26.266 0 47.053 13.568 62.31 40.755 15.258 27.136 22.886 69.222 22.886 126.208 0 57.139-7.629 99.379-22.886 126.669s-36.045 40.96-62.31 40.96c-26.266 0-47.053-13.67-62.31-40.96s-22.886-69.53-22.886-126.669zM3970.458 551.475v13.978c13.67-1.331 27.238-1.946 40.704-1.946 27.546 0 50.278 3.021 68.25 9.062v-261.478c0-9.933 0.205-18.022 0.614-24.218 0.461-6.144 1.536-12.902 3.379-20.275 1.393-6.581 4.125-12.368 7.909-17.305l-0.075 0.102c3.94-4.453 8.818-7.984 14.332-10.297l0.26-0.097c6.298-2.816 14.029-4.25 23.245-4.25 25.395 0 46.541 11.52 63.386 34.611 16.896 23.040 25.344 51.712 25.344 85.914v137.421c0 20.531-3.686 35.482-11.059 44.8s-20.326 13.978-38.912 13.978v13.978c13.67-1.331 27.238-1.946 40.653-1.946 27.802 0 50.534 3.021 68.25 9.062v-278.016c0-20.582 3.686-35.482 11.059-44.698s20.326-13.824 38.912-13.824v-13.926c-12.182 1.223-26.349 1.93-40.679 1.946h-0.025c-28.16 0-50.893-3.123-68.198-9.421v78.592c-10.701-27.29-25.6-47.411-44.698-60.416-17.407-12.177-39.019-19.458-62.332-19.458-0.226 0-0.452 0.001-0.678 0.002h0.035c-29.44 0-52.224 8.397-68.198 25.293-14.541 15.872-21.811 44.851-21.811 87.040v167.066c0 20.531-3.584 35.482-10.854 44.8s-20.224 13.978-38.81 13.978zM4360.038 222.771v13.926c18.381 0 31.232 3.43 38.758 10.24 7.475 6.81 11.213 19.354 11.213 37.53v208.23c0 20.531-3.686 35.482-11.059 44.8s-20.326 13.978-38.912 13.978v13.978c13.67-1.331 27.238-1.946 40.653-1.946 27.802 0 50.534 3.021 68.25 9.062v-83.098c7.885 22.118 20.48 41.779 37.632 59.136 17.203 17.306 36.352 25.958 57.498 25.958 17.51 0 31.898-5.069 43.11-15.258s16.794-22.528 16.794-37.018c0.011-0.37 0.017-0.805 0.017-1.242 0-10.85-3.875-20.794-10.316-28.526l0.058 0.072c-6.242-7.482-15.57-12.208-26.001-12.208-0.435 0-0.869 0.008-1.3 0.025l0.062-0.002c-0.221-0.005-0.482-0.008-0.744-0.008-9.209 0-17.599 3.503-23.912 9.249l0.029-0.026c-6.332 5.906-10.279 14.297-10.279 23.61 0 0.556 0.014 1.108 0.042 1.657l-0.003-0.077c0 14.49 7.424 26.522 22.374 36.045-2.97 4.352-7.578 6.502-13.773 6.502-13.005 0-25.446-4.147-37.325-12.493-11.834-8.401-21.583-18.917-28.875-31.075l-0.258-0.464c-7.085-11.654-13.22-25.1-17.711-39.277l-0.362-1.325c-4.083-12.042-6.539-25.921-6.757-40.342l-0.001-0.106v-140.954c0-20.582 5.786-34.816 17.306-42.701 11.52-7.936 28.928-11.878 52.224-11.878v-13.978c-26.842 1.096-62.109 2.039-97.476 2.57l-3.439 0.041c-11.52 0-37.376-0.87-77.517-2.56zM4815.206 222.771v13.926c18.432 0 31.334 3.43 38.81 10.24s11.213 19.354 11.213 37.53v208.23c0 20.531-3.686 35.482-11.059 44.8s-20.326 13.978-38.912 13.978v13.978c13.67-1.331 27.238-1.946 40.653-1.946 27.802 0 50.534 3.021 68.25 9.062v-288.102c0-18.176 3.738-30.72 11.264-37.53 7.424-6.81 20.326-10.24 38.707-10.24v-13.978c-21.919 1.186-49.647 2.129-77.493 2.586l-1.969 0.025c-12.8 0-39.27-0.87-79.411-2.56zM4848.23 689.203c-0.001 0.114-0.002 0.248-0.002 0.383 0 11.548 4.72 21.994 12.337 29.514l0.004 0.004c7.298 7.793 17.651 12.65 29.138 12.65 0.178 0 0.356-0.001 0.533-0.003h-0.027c11.264 0 21.146-4.198 29.44-12.646 8.346-8.448 12.544-18.432 12.544-29.901 0.002-0.164 0.004-0.357 0.004-0.551 0-11.582-4.807-22.041-12.535-29.492l-0.013-0.012c-7.353-7.704-17.701-12.494-29.168-12.494-0.096 0-0.191 0-0.287 0.001h0.015c-0.161-0.002-0.35-0.004-0.54-0.004-11.448 0-21.776 4.792-29.089 12.48l-0.016 0.017c-7.591 7.488-12.293 17.887-12.293 29.385 0 0.235 0.002 0.47 0.006 0.704v-0.035zM5019.955 393.626v2.253c0 28.57 3.84 54.272 11.52 77.005 8.141 23.347 19.098 42.291 33.024 56.832 13.824 14.49 29.594 25.6 47.206 33.28 17.664 7.68 36.506 11.52 56.576 11.52 36.71 0 62.976-13.107 78.797-39.27v129.28c0 20.582-3.686 35.43-11.059 44.646s-20.326 13.824-38.912 13.824v13.978c13.875-1.331 27.443-1.997 40.704-1.997 28.16 0 50.893 3.174 68.198 9.421v-449.229c0-20.582 3.686-35.43 11.059-44.646s20.326-13.824 38.912-13.824v-13.978c-12.142 1.236-26.287 1.961-40.594 1.997h-0.059c-28.16 0-50.944-3.174-68.25-9.421v59.085c-16.435-40.704-47.514-61.082-93.184-61.082-42.086 0-75.008 15.309-98.714 45.824s-35.43 75.366-35.226 134.502zM5083.699 395.571v-4.25c-0.205-52.224 7.168-91.494 22.118-117.914 14.95-26.829 37.274-40.141 66.918-39.936 17.101 0 32.512 6.656 46.336 20.122 13.773 13.414 23.091 32.256 28.006 56.525v197.837c-12.186 34.202-36.608 51.302-73.37 51.302-26.88 0-48.64-14.080-65.331-42.24-16.435-27.648-24.678-68.198-24.678-121.446zM5399.859 385.843c0 58.214 13.414 104.243 40.243 138.035 26.778 33.792 62.822 50.688 108.083 50.688 39.322 0 69.632-12.083 90.829-36.25 21.248-24.166 31.898-60.774 31.898-109.978h-205.056c-1.485-11.878-2.202-26.112-2.202-42.496 0-43.52 10.035-78.541 30.106-104.96s43.469-39.629 70.144-39.629c44.032 0 76.134 22.221 96.41 66.56l13.158-5.12c-8.608-25.64-24.023-47.087-44.104-62.862l-0.286-0.217c-21.658-17.51-47.77-26.317-78.336-26.317-46.746 0-83.61 15.872-110.49 47.462-26.931 31.59-40.397 73.267-40.397 125.030zM5464.883 441.037h142.899c0.205 3.686 0.307 7.27 0.307 10.752 0 29.645-4.915 54.835-14.694 75.622-10.906 22.989-26.829 34.458-47.77 34.458-20.685 0-38.502-10.138-53.299-30.362-14.848-20.275-24.013-50.432-27.392-90.47zM5727.283 292.557c0 12.8 2.253 24.166 6.707 34.15 5.264 10.939 12.694 20.074 21.796 27.163l0.168 0.126c10.138 8.192 20.941 15.36 32.358 21.555s26.317 13.158 44.698 20.992c2.765 1.28 7.424 3.226 13.926 5.837 6.502 2.56 11.11 4.506 13.773 5.632l12.032 5.427c4.518 1.905 8.253 3.791 11.846 5.891l-0.48-0.259c2.202 1.434 5.222 3.277 8.96 5.53 3.057 1.746 5.684 3.803 7.977 6.184l0.011 0.011c1.638 1.843 3.379 3.994 5.325 6.502 1.73 2.161 3.095 4.702 3.95 7.467l0.043 0.162c0.715 2.406 1.127 5.17 1.127 8.030 0 0.039 0 0.078 0 0.116v-0.006 41.216c0 25.805-5.325 43.366-15.872 52.787-10.598 9.421-25.6 14.131-45.056 14.131-30.925 0-52.582-7.885-65.024-23.706 17.801-4.607 30.736-20.525 30.736-39.465 0-0.4-0.006-0.798-0.017-1.195l0.001 0.058c0.051-11.264-3.379-20.070-10.342-26.47s-16.282-9.574-28.006-9.574c-0.47-0.025-1.019-0.039-1.573-0.039-9.821 0-18.612 4.41-24.501 11.358l-0.039 0.047c-6.298 7.578-9.472 17.562-9.472 29.901 0 17.306 10.24 33.126 30.72 47.411 25.242 16.691 55.859 24.986 91.955 24.986 36.557 0 62.976-8.294 79.462-24.986 10.035-10.394 16.896-22.477 20.685-36.25 3.738-13.722 5.632-32.768 5.632-56.986v-184.832c0-11.059 1.536-19.046 4.608-24.064 3.072-4.966 8.294-7.424 15.514-7.424 9.011 0 18.79 4.608 29.491 13.978l7.373-11.418c-7.68-5.837-13.67-10.138-17.92-12.954-5.081-3.175-10.941-5.843-17.15-7.702l-0.514-0.132c-7.475-2.355-15.565-3.584-24.32-3.584-21.146 0-35.84 5.376-44.032 16.128-8.243 10.752-12.339 25.088-12.339 43.008-12.8-21.402-28.16-36.659-46.131-45.619-17.92-9.011-36.198-13.466-54.784-13.466-23.706 0-43.52 6.246-59.392 18.842-15.974 12.544-23.91 31.078-23.91 55.501zM5784.934 303.309c0-19.302 4.813-33.843 14.438-43.674 9.574-9.882 22.323-14.848 38.093-14.848 29.082 0 53.76 16.845 74.035 50.381v130.56c-4.194-5.804-9.56-10.5-15.778-13.806l-0.248-0.12c-7.475-4.352-23.040-12.339-46.797-24.064-9.165-4.506-16.691-8.653-22.528-12.288-7.331-4.816-13.722-9.906-19.615-15.516l0.057 0.053c-7.168-6.656-12.595-14.694-16.179-24.218-3.635-9.523-5.478-20.326-5.478-32.461zM6064.589 218.214c1.741 25.344 2.56 69.632 2.56 132.813h15.104c1.894-16.026 4.096-29.85 6.554-41.574 2.458-11.674 5.939-23.040 10.394-34.099 4.506-11.008 9.933-19.917 16.384-26.624 6.349-6.707 14.438-12.083 24.166-16.077s20.992-5.99 33.792-5.99c15.36 0 28.928 5.12 40.653 15.411 11.776 10.24 17.664 26.266 17.664 47.923 0 7.578-1.382 14.746-4.045 21.606-2.587 6.744-5.758 12.571-9.581 17.899l0.16-0.235c-4.885 6.239-10.319 11.689-16.334 16.434l-0.203 0.155c-5.79 4.867-12.245 9.826-18.912 14.504l-0.902 0.6c-4.12 2.951-12.131 8.253-20.216 13.452l-4.36 2.625c-11.703 7.306-16.861 10.684-21.999 14.090l6.178-3.85c-10.314 6.751-15.001 9.954-19.67 13.182l5.283-3.454c-10.030 6.643-18.774 13.549-26.904 21.108l0.127-0.116c-4.3 3.481-8.081 7.312-11.404 11.521l-0.116 0.153-8.653 12.186c-3.584 5.12-6.144 9.83-7.526 14.285-1.25 3.823-2.577 8.894-3.656 14.054l-0.184 1.050c-1.139 5.241-1.792 11.262-1.792 17.435 0 0.027 0 0.053 0 0.080v-0.004c0 28.16 9.216 49.51 27.75 64 18.432 14.541 41.574 21.76 69.325 21.76 27.802 0 51.61-8.090 71.475-24.32 4.659-3.686 8.499-5.53 11.52-5.53 7.68 0 12.595 9.728 14.746 29.184h15.053c-1.741-21.606-2.56-59.29-2.56-112.998h-15.053c-10.906 67.328-40.704 101.018-89.395 101.018-15.821 0-28.723-4.506-38.758-13.466-10.035-9.011-15.053-21.504-15.053-37.53 0-5.632 0.666-10.906 2.048-15.77 1.62-5.4 4.034-10.102 7.149-14.247l-0.083 0.115c6.351-9.43 14.126-17.352 23.112-23.669l0.286-0.191c6.093-4.454 11.11-8.038 15.053-10.752 3.942-2.662 9.984-6.554 18.074-11.674 19.986-12.466 35.393-22.798 50.503-33.521l-3.245 2.186c7.373-5.222 15.36-11.674 24.064-19.456 8.653-7.834 15.309-15.258 19.968-22.272 4.71-7.066 8.704-15.36 12.032-24.883s4.966-19.558 4.966-30.208c0-19.712-5.274-36.762-15.872-51.149-10.312-14.073-24.128-25.009-40.182-31.619l-0.624-0.227c-16.691-6.81-35.123-10.24-55.45-10.24-0.694-0.013-1.513-0.020-2.333-0.020-17.834 0-34.858 3.467-50.436 9.764l0.903-0.323c-10.236 5.419-19.060 11.366-27.184 18.125l0.253-0.205c-1.505 1.579-3.623 2.561-5.972 2.561-0.043 0-0.085 0-0.127-0.001h0.006c-6.4 0-10.854-8.346-13.414-24.986h-15.104zM6486.835 551.475v13.312h63.13v101.683c24.576 0.666 44.186 3.789 58.88 9.421v-111.104h97.126v-13.312h-97.075v-257.587c0-20.122 3.533-34.611 10.547-43.366 7.066-8.755 17.51-13.158 31.386-13.158 0.049 0 0.107 0 0.165 0 13.998 0 26.493 6.435 34.689 16.507l0.065 0.082c9.626 11.008 17.766 29.184 24.371 54.528l12.8-3.226c-10.65-61.286-39.066-91.955-85.197-91.955-26.931 0-47.616 7.373-62.157 22.118-9.284 9.737-16.191 21.823-19.739 35.273l-0.127 0.567c-3.84 14.234-5.734 33.331-5.734 57.344v222.925h-63.13zM6747.29 393.626c0 25.088 2.509 47.718 7.526 67.891 5.018 20.122 11.93 37.171 20.787 51.149 16.846 26.347 42.206 45.976 72.136 55.154l0.926 0.244c13.776 4.1 29.604 6.459 45.984 6.459 0.574 0 1.147-0.003 1.72-0.009l-0.087 0.001c17.050 0 32.922-2.15 47.514-6.502 14.643-4.301 28.262-11.11 40.858-20.48 12.595-9.267 23.347-20.89 32.205-34.867s15.821-31.027 20.838-51.2c5.018-20.122 7.526-42.752 7.526-67.84 0-30.976-3.789-58.214-11.418-81.715-7.578-23.501-18.227-42.342-32-56.525-12.945-13.508-28.646-24.263-46.212-31.374l-0.892-0.319c-16.762-6.588-36.174-10.406-56.477-10.406-0.701 0-1.4 0.005-2.099 0.014l0.106-0.001c-21.35 0-40.858 3.482-58.47 10.394-18.461 7.445-34.162 18.216-47.057 31.695l-0.047 0.049c-13.722 14.131-24.422 32.973-32 56.474s-11.366 50.688-11.366 81.715zM6811.034 393.626c0-56.986 7.629-99.021 22.886-126.208s36.045-40.755 62.31-40.755c26.266 0 47.053 13.568 62.31 40.755 15.258 27.136 22.938 69.222 22.938 126.208 0 57.139-7.68 99.379-22.938 126.669s-36.045 40.96-62.31 40.96c-26.266 0-47.053-13.67-62.31-40.96s-22.886-69.53-22.886-126.669zM7253.76 222.72v13.978c18.381 0 31.232 3.43 38.758 10.24 7.475 6.81 11.213 19.354 11.213 37.53v380.058c0 20.582-3.686 35.43-11.059 44.646s-20.326 13.824-38.912 13.824v13.978c13.67-1.331 27.238-1.997 40.653-1.997 28.211 0 50.944 3.174 68.25 9.421v-459.93c0-18.176 3.738-30.72 11.264-37.53 7.424-6.81 20.326-10.24 38.707-10.24v-13.978c-21.899 1.186-49.608 2.128-77.435 2.586l-1.976 0.026c-12.8 0-39.322-0.87-79.462-2.56zM7445.965 222.72v13.978c18.381 0 31.283 3.43 38.758 10.24s11.213 19.354 11.213 37.53v208.23c0 20.531-3.686 35.482-11.059 44.8s-20.326 13.978-38.912 13.978v13.978c13.67-1.331 27.238-1.946 40.704-1.946 27.75 0 50.483 3.021 68.198 9.062v-288.102c0-18.176 3.738-30.72 11.264-37.53 7.424-6.81 20.378-10.24 38.707-10.24v-13.978c-21.899 1.186-49.608 2.128-77.435 2.586l-1.976 0.026c-12.8 0-39.322-0.87-79.462-2.56zM7478.938 689.152c-0.001 0.129-0.002 0.281-0.002 0.434 0 11.549 4.72 21.995 12.337 29.514l0.004 0.004c7.298 7.793 17.651 12.65 29.138 12.65 0.178 0 0.356-0.001 0.533-0.003h-0.027c11.315 0 21.146-4.198 29.491-12.646 8.294-8.448 12.493-18.432 12.493-29.901 0.003-0.178 0.004-0.389 0.004-0.6 0-11.557-4.787-21.997-12.486-29.444l-0.011-0.011c-7.353-7.704-17.701-12.494-29.168-12.494-0.114 0-0.227 0-0.34 0.001h0.017c-0.161-0.002-0.35-0.004-0.54-0.004-11.448 0-21.776 4.792-29.089 12.48l-0.016 0.017c-7.591 7.488-12.293 17.887-12.293 29.385 0 0.235 0.002 0.47 0.006 0.704v-0.035zM7636.224 551.424v13.363h52.582c0 38.963 2.458 69.12 7.373 90.47 4.864 21.35 13.619 39.424 26.266 54.426 8.499 10.394 19.61 18.534 33.28 24.525 13.67 5.939 28.518 8.909 44.544 8.909 22.426 0 41.472-6.042 57.037-18.176 13.67-11.264 20.48-25.037 20.48-41.267 0.014-0.362 0.021-0.787 0.021-1.215 0-9.33-3.719-17.792-9.756-23.983l0.007 0.007c-6.116-6.12-14.568-9.906-23.903-9.906-0.453 0-0.903 0.009-1.352 0.027l0.064-0.002c-0.264-0.007-0.574-0.011-0.885-0.011-9.514 0-18.162 3.707-24.579 9.756l0.018-0.017c-6.462 6.182-10.478 14.875-10.478 24.505 0 0.529 0.012 1.055 0.036 1.578l-0.003-0.074c-0.014 0.37-0.023 0.803-0.023 1.239 0 8.098 2.848 15.53 7.597 21.35l-0.048-0.061c5.032 5.894 11.947 10.050 19.805 11.537l0.215 0.034c-1.28 4.096-4.762 7.578-10.547 10.394-5.894 2.672-12.781 4.229-20.032 4.229-0.608 0-1.213-0.011-1.816-0.033l0.087 0.002c-19.456 0-33.638-8.192-42.65-24.678-4.915-8.858-8.090-22.118-9.574-39.782-1.536-17.664-2.253-46.49-2.253-86.528v-17.254h70.451v-13.312h-70.451v-260.198c0-20.582 5.734-34.816 17.306-42.701 11.52-7.936 28.928-11.878 52.224-11.878v-13.978c-26.842 1.096-62.109 2.039-97.476 2.57l-3.439 0.041c-10.701 0-36.557-0.87-77.517-2.56v13.926c18.33 0 31.232 3.43 38.758 10.24 7.475 6.81 11.213 19.354 11.213 37.53v266.957h-52.582zM7867.238 385.792c0 58.266 13.363 104.294 40.192 138.086 26.778 33.792 62.822 50.688 108.134 50.688 39.27 0 69.53-12.083 90.778-36.25s31.898-60.774 31.898-109.978h-205.005c-1.536-11.878-2.253-26.112-2.253-42.496 0-43.52 10.035-78.541 30.106-104.96s43.469-39.629 70.144-39.629c44.032 0 76.134 22.221 96.41 66.56l13.158-5.12c-8.608-25.64-24.023-47.087-44.104-62.862l-0.286-0.217c-21.658-17.51-47.77-26.317-78.336-26.317-46.746 0-83.558 15.872-110.49 47.462s-40.346 73.267-40.346 125.030zM7932.262 441.037h142.848c0.256 3.686 0.358 7.27 0.358 10.752 0 29.645-4.915 54.835-14.746 75.622-10.906 22.989-26.829 34.458-47.718 34.458-20.736 0-38.502-10.138-53.35-30.362-14.848-20.275-23.962-50.432-27.392-90.47zM2318.234 690.534c0-29.776-24.138-53.914-53.914-53.914s-53.914 24.138-53.914 53.914c0 29.776 24.138 53.914 53.914 53.914s53.914-24.138 53.914-53.914zM4957.235 690.534c0-29.776-24.138-53.914-53.914-53.914s-53.914 24.138-53.914 53.914c0 29.776 24.138 53.914 53.914 53.914s53.914-24.138 53.914-53.914zM7547.75 690.534c0-29.776-24.138-53.914-53.914-53.914s-53.914 24.138-53.914 53.914c0 29.776 24.138 53.914 53.914 53.914s53.914-24.138 53.914-53.914z" />
<glyph unicode="&#xe914;" glyph-name="quotation-mark-copy" horiz-adv-x="1365" d="M1228.629 952.064c11.904 7.808 41.813 14.677 59.307-4.139l32.299-39.339c15.573-25.6-3.328-49.28-15.573-59.136-58.197-46.763-100.48-82.901-126.891-108.501-51.797-52.779-90.069-105.557-115.371-158.208-5.76-12.032 8.96-19.669 16.64-22.101 190.848-60.587 286.293-167.424 286.293-320.427 0-90.155-30.891-163.413-92.715-219.733-61.739-56.32-139.221-84.48-232.277-84.48-82.859 0-156.288 36.608-220.245 109.867-62.549 68.992-93.824 143.659-93.824 223.957 0 235.264 167.467 462.677 502.357 682.24zM502.315 952.064c11.947 7.808 41.813 14.677 59.307-4.139l32.299-39.339c15.616-25.6-3.285-49.28-15.531-59.136-58.197-46.763-100.523-82.901-126.933-108.501-51.755-52.779-90.027-105.557-115.328-158.208-5.803-12.032 8.96-19.669 16.64-22.101 190.805-60.587 286.293-167.424 286.293-320.427 0-90.155-30.933-163.413-92.715-219.733-61.824-56.32-139.307-84.48-232.32-84.48-82.901 0-156.331 36.608-220.288 109.867-62.507 68.992-93.739 143.659-93.739 223.957 0 235.264 167.424 462.677 502.315 682.24z" />
<glyph unicode="&#xe915;" glyph-name="quotation-mark" horiz-adv-x="1365" d="M136.704-56.064c-11.904-7.808-41.813-14.677-59.307 4.139l-32.299 39.339c-15.573 25.6 3.328 49.28 15.573 59.136 58.197 46.763 100.48 82.901 126.891 108.501 51.797 52.779 90.069 105.557 115.371 158.208 5.76 12.032-8.96 19.669-16.64 22.101-190.848 60.587-286.293 167.424-286.293 320.427 0 90.155 30.891 163.413 92.715 219.733 61.739 56.32 139.221 84.48 232.277 84.48 82.859 0 156.288-36.608 220.245-109.867 62.549-68.992 93.824-143.659 93.824-223.957 0-235.264-167.467-462.677-502.357-682.24zM863.019-56.064c-11.947-7.808-41.813-14.677-59.307 4.139l-32.299 39.339c-15.616 25.6 3.285 49.28 15.531 59.136 58.197 46.763 100.523 82.901 126.933 108.501 51.755 52.779 90.027 105.557 115.328 158.208 5.803 12.032-8.96 19.669-16.64 22.101-190.805 60.587-286.293 167.424-286.293 320.427 0 90.155 30.933 163.413 92.715 219.733 61.824 56.32 139.307 84.48 232.32 84.48 82.901 0 156.331-36.608 220.288-109.867 62.507-68.992 93.739-143.659 93.739-223.957 0-235.264-167.424-462.677-502.315-682.24z" />
<glyph unicode="&#xe916;" glyph-name="i-scale" horiz-adv-x="1769" d="M1396.364-64c-205.731 0-372.364 143.174-372.364 418.909l372.364 605.091 372.364-605.091c0-276.387-166.633-418.909-372.364-418.909zM1396.364 710.982l-220.067-352.349h440.134l-220.067 352.349zM372.364-64c-205.731 0-372.364 143.174-372.364 418.909l372.364 605.091 372.364-605.091c0-276.294-166.633-418.909-372.364-418.909zM372.364 710.982l-220.067-352.349h440.134l-220.067 352.349zM279.273 866.909h1210.182c51.413 0 93.091-41.678 93.091-93.091s-41.678-93.091-93.091-93.091h-1210.182c-51.413 0-93.091 41.678-93.091 93.091s41.678 93.091 93.091 93.091zM1024 773.818c0-102.825-83.356-186.182-186.182-186.182s-186.182 83.356-186.182 186.182c0 102.825 83.356 186.182 186.182 186.182s186.182-83.356 186.182-186.182z" />
<glyph unicode="&#xe917;" glyph-name="arrow-prev" horiz-adv-x="569" d="M552.22 862.891c9.881 10.22 15.969 24.16 15.969 39.521 0 31.419-25.47 56.889-56.889 56.889-15.362 0-29.301-6.089-39.537-15.985l0.016 0.015-455.111-455.111c-10.291-10.294-16.656-24.514-16.656-40.22s6.365-29.926 16.656-40.221l455.111-455.111c10.22-9.881 24.16-15.969 39.521-15.969 31.419 0 56.889 25.47 56.889 56.889 0 15.362-6.089 29.301-15.985 39.537l0.015-0.016-414.891 414.891 414.891 414.891z" />
<glyph unicode="&#xe918;" glyph-name="arrow-next" horiz-adv-x="569" d="M16.668 862.891c-10.715 10.359-17.368 24.862-17.368 40.92 0 31.419 25.47 56.889 56.889 56.889 16.057 0 30.56-6.652 40.904-17.352l0.015-0.016 455.111-455.111c10.291-10.294 16.656-24.514 16.656-40.22s-6.365-29.926-16.656-40.221l-455.111-455.111c-10.22-9.881-24.16-15.969-39.521-15.969-31.419 0-56.889 25.47-56.889 56.889 0 15.362 6.089 29.301 15.985 39.537l-0.015-0.016 414.891 414.891-414.891 414.891z" />
<glyph unicode="&#xe919;" glyph-name="i-glass" horiz-adv-x="973" d="M764.467 259.84c2.484-1.708 4.659-3.509 6.662-5.484l187.386-187.386c8.694-8.694 14.071-20.705 14.071-33.971 0-26.533-21.509-48.043-48.043-48.043-13.267 0-25.277 5.377-33.971 14.071l-187.392 187.392c-2.731 2.73-5.135 5.786-7.15 9.105l-0.12 0.214c-71.983-54.406-162.985-87.144-261.634-87.144-0.359 0-0.719 0-1.078 0.001h0.055c-239.206 0-433.254 190.618-433.254 425.677 0 235.11 193.997 425.728 433.254 425.728 239.309 0 433.254-190.618 433.254-425.728 0-104.55-38.4-200.294-102.042-274.432zM433.254 201.83c186.88 0 338.381 148.838 338.381 332.442 0 183.654-151.501 332.493-338.381 332.493s-338.381-148.838-338.381-332.493c0-183.603 151.552-332.442 338.432-332.442z" />
<glyph unicode="&#xe91a;" glyph-name="i-cart" d="M307.2 140.8c-56.32 0-102.4-46.080-102.4-102.4s46.080-102.4 102.4-102.4 102.4 46.080 102.4 102.4-46.080 102.4-102.4 102.4zM0 960v-102.4h102.4l184.32-389.12-71.68-122.88c-5.12-15.36-10.24-35.84-10.24-51.2 0-56.32 46.080-102.4 102.4-102.4h614.4v102.4h-593.92c-5.12 0-10.24 5.12-10.24 10.24v5.12l46.080 87.040h378.88c40.96 0 71.68 20.48 87.040 51.2l184.32 332.8c10.24 10.24 10.24 15.36 10.24 25.6 0 30.72-20.48 51.2-51.2 51.2h-757.76l-46.080 102.4h-168.96zM819.2 140.8c-56.32 0-102.4-46.080-102.4-102.4s46.080-102.4 102.4-102.4 102.4 46.080 102.4 102.4-46.080 102.4-102.4 102.4z" />
<glyph unicode="&#xe91b;" glyph-name="i-heart" horiz-adv-x="1182" d="M590.769-64l-82.708 77.982c-307.2 256-508.062 428.505-508.062 639.842 0 172.583 141.785 306.176 324.923 306.176 100.431 0 200.862-44.505 265.846-116.894 64.985 72.389 165.415 116.894 265.846 116.894 183.138 0 324.923-133.593 324.923-306.097 0-211.495-200.862-384-508.062-640l-82.708-77.903z" />
<glyph unicode="&#xe91c;" glyph-name="i-map" horiz-adv-x="808" d="M404.211 960c222.477 0 404.211-169.229 404.211-378.287 0-112.748-65.752-251.149-175.697-404.426-59.82-82.614-120.12-155.207-184.8-223.615l0.965 1.030c-11.371-11.571-27.187-18.742-44.679-18.742s-33.308 7.171-44.67 18.733l-0.009 0.009c-14.12 14.659-35.786 38.265-62.033 68.662-39.796 45.646-79.742 95.785-117.457 147.652l-4.345 6.272c-109.945 153.223-175.697 291.732-175.697 404.426 0 209.058 181.733 378.287 404.211 378.287zM404.211 906.105c-193.536 0-350.316-146.001-350.316-324.392 0-98.25 61.763-228.352 165.565-372.952 58.227-80.416 116.9-151.075 179.827-217.671l-0.95 1.014c2.91-2.964 8.839-2.964 11.749 0 13.474 14.013 34.493 36.864 60.093 66.506 40.906 47.32 81.381 97.927 118.784 150.097 103.801 144.653 165.565 274.755 165.565 373.005 0 178.392-156.78 324.392-350.316 324.392zM404.211 421.053c74.267 0 134.737 60.47 134.737 134.737s-60.47 134.737-134.737 134.737c-74.376-0.092-134.645-60.361-134.737-134.728v-0.009c0-74.267 60.47-134.737 134.737-134.737zM404.211 367.158c-104.017 0-188.632 84.615-188.632 188.632s84.615 188.632 188.632 188.632 188.632-84.615 188.632-188.632-84.615-188.632-188.632-188.632z" />
<glyph unicode="&#xe91d;" glyph-name="i-lifecell" d="M172.837 64.439c-13.711 12.164-26.287 24.532-38.206 37.513l-0.34 0.375c11.41 227.694 104.448 398.117 279.040 511.269 17.349-12.028 38.848-19.215 62.025-19.215 60.594 0 109.714 49.121 109.714 109.714s-49.121 109.714-109.714 109.714c-60.594 0-109.714-49.121-109.714-109.714 0-17.041 3.885-33.174 10.818-47.563l-0.285 0.657c-183.077-56.832-304.274-161.646-363.301-314.734-0.214-0.37-0.679-1.331-1.129-2.3l-0.261-0.626c-7.355 32.528-11.569 69.885-11.569 108.226 0 282.77 229.23 512 512 512s512-229.23 512-512c0-282.77-229.23-512-512-512-58.578 0-114.858 9.837-167.279 27.95l3.598-1.081c35.401 190.464 157.477 332.507 366.226 426.057 15.418-8.777 33.875-13.951 53.54-13.951 60.594 0 109.714 49.121 109.714 109.714s-49.121 109.714-109.714 109.714c-60.594 0-109.714-49.121-109.714-109.714 0-14.379 2.766-28.112 7.795-40.695l-0.261 0.74c-218.039-59.685-382.391-186.368-492.983-380.123z" />
<glyph unicode="&#xe91e;" glyph-name="i-mts" d="M73.143 960h877.714c40.396 0 73.143-32.747 73.143-73.143v0-877.714c0-40.396-32.747-73.143-73.143-73.143v0h-877.714c-40.396 0-73.143 32.747-73.143 73.143v0 877.714c0 40.396 32.747 73.143 73.143 73.143v0zM512 45.714c161.583 0 292.571 130.989 292.571 292.571v0c0 161.646-108.032 509.586-292.571 509.586s-292.571-348.014-292.571-509.586c0-161.583 130.989-292.571 292.571-292.571v0z" />
<glyph unicode="&#xe91f;" glyph-name="i-ks" d="M511.104 960c36.736 0 66.56-29.824 66.56-66.56v-245.504c0-36.76-29.8-66.56-66.56-66.56s-66.56 29.8-66.56 66.56v0 245.504c0 36.736 29.696 66.56 66.56 66.56zM1020.736 588.8c2.059-6.133 3.247-13.195 3.247-20.535 0-29.411-19.075-54.366-45.529-63.169l-0.47-0.136-233.472-75.904c-6.145-2.066-13.221-3.259-20.576-3.259-36.775 0-66.587 29.812-66.587 66.587 0 29.42 19.080 54.384 45.541 63.192l0.47 0.136 233.472 75.84c6.133 2.059 13.195 3.247 20.535 3.247 29.411 0 54.366-19.075 63.169-45.529l0.136-0.47zM824.896-9.536c-10.823-7.932-24.404-12.693-39.097-12.693-22.046 0-41.588 10.718-53.701 27.227l-0.13 0.186-144.32 198.592c-7.948 10.832-12.718 24.427-12.718 39.136 0 36.768 29.806 66.574 66.574 66.574 22.059 0 41.611-10.728 53.726-27.252l0.13-0.186 144.32-198.592c7.951-10.832 12.724-24.428 12.724-39.139 0-22.059-10.731-41.612-27.257-53.722l-0.187-0.13zM194.688-9.536c-16.713 12.241-27.444 31.794-27.444 53.853 0 14.711 4.773 28.307 12.854 39.325l-0.13-0.186 144.256 198.592c12.245 16.71 31.797 27.438 53.856 27.438 36.768 0 66.574-29.806 66.574-66.574 0-14.709-4.77-28.304-12.848-39.322l0.13 0.186-144.32-198.592c-12.243-16.695-31.785-27.413-53.831-27.413-14.693 0-28.274 4.761-39.284 12.824l0.187-0.131zM3.328 588.864c8.956 26.893 33.897 45.941 63.286 45.941 7.347 0 14.416-1.19 21.024-3.389l-0.47 0.135 233.472-75.84c26.931-8.944 46.011-33.908 46.011-63.328 0-36.775-29.812-66.587-66.587-66.587-7.355 0-14.431 1.192-21.046 3.394l0.47-0.136-233.472 75.904c-26.924 8.939-45.999 33.894-45.999 63.305 0 7.34 1.188 14.402 3.382 21.005l-0.135-0.47z" />
<glyph unicode="&#xe920;" glyph-name="i-bank" horiz-adv-x="1085" d="M633.18 584.54c-0.295 0.002-0.645 0.002-0.994 0.002-42.383 0-81.789-12.747-114.593-34.617l0.756 0.474h-210.801c-10.854 0-18.104-6.82-18.104-17.060s7.25-17.080 18.104-17.080h171.827c-16.76-19.033-29.726-41.848-37.442-66.961l-0.343-1.299h-134.042c-10.854 0-18.104-6.82-18.104-17.060s7.25-17.080 18.104-17.080h127.447c-0.526-5.155-0.826-11.139-0.826-17.194 0-18.206 2.712-35.779 7.753-52.337l-0.333 1.271h-134.042c-10.854 0-18.084-6.82-18.084-17.060s7.229-17.060 18.084-17.060h148.152c32.788-60.928 99.738-102.4 177.48-102.4 110.346 0 199.004 83.62 199.004 187.72s-88.658 187.74-199.004 187.74zM633.18 243.2c-90.46 0-162.816 68.26-162.816 153.6 0 9.769 0.983 19.313 2.806 28.549 0.307 0.98 0.546 2.134 0.669 3.321l0.007 0.078c8.049 36.413 29.635 67.912 59.597 89.743 1.506 0.804 2.804 1.737 3.964 2.816l-0.011-0.010c26.595 18.225 59.47 29.104 94.886 29.104 0.316 0 0.632-0.001 0.947-0.003h-0.049c90.44 0 162.816-68.26 162.816-153.6s-72.376-153.6-162.816-153.6zM732.672 480.42c-9.052 5.12-19.907 3.42-25.334-5.12l-95.867-136.52-56.095 52.9c-3.274 3.162-7.738 5.111-12.657 5.111s-9.383-1.949-12.662-5.116l0.005 0.005c-3.333-2.925-5.426-7.193-5.426-11.95s2.093-9.026 5.408-11.935l0.018-0.015 72.356-68.26c3.625-3.42 7.229-5.12 12.657-5.12 7.229 0 12.657 3.42 14.479 8.54l108.544 153.6c5.427 8.52 3.625 18.76-5.427 23.88zM976.896 960h-705.536c-50.647 0-90.46-37.54-90.46-85.34v-699.72h-126.628c-30.761 0-54.272-22.2-54.272-51.2v-85.34c0-56.32 48.845-102.4 108.544-102.4h687.452c27.136 0 52.449 10.24 72.356 27.3 22.127 17.585 36.189 44.495 36.189 74.69 0 0.144 0 0.288-0.001 0.432v-0.022 682.66h126.628c30.761 0 54.272 22.2 54.272 51.2v85.34c0 56.32-48.845 102.4-108.544 102.4zM108.544-29.86c-39.793 0-72.356 30.72-72.356 68.26v85.34c0 8.52 7.229 17.060 18.084 17.060h633.18v-102.4c0-25.6 9.032-49.5 27.136-68.26h-606.044zM868.352 857.6v-819.2c0-20.48-9.052-37.54-23.511-51.2-13.619-9.994-29.757-16.384-46.326-17.203-0.751 0.087-1.627 0.139-2.513 0.143h-0.006c-0.047 0-0.102 0-0.157 0-12.342 0-23.989 2.975-34.263 8.246l0.423-0.197c-22.97 12.345-38.334 36.189-38.38 63.625v116.046c0 10.24-7.229 17.080-18.084 17.080h-488.448v699.72c0 29.020 23.511 51.2 54.272 51.2h624.128c-3.482-4.014-6.697-8.274-9.626-12.718-10.905-15.497-17.45-34.749-17.51-55.527v-0.015zM1049.252 772.26c0-8.52-7.229-17.060-18.084-17.060h-126.628v102.4c0 37.54 32.563 68.26 72.356 68.26s72.356-30.72 72.356-68.26v-85.34zM434.176 823.46h217.088c10.854 0 18.084 6.84 18.084 17.080s-7.229 17.060-18.084 17.060h-217.088c-10.854 0-18.084-6.82-18.084-17.060s7.229-17.080 18.084-17.080zM307.548 721.060h470.344c10.854 0 18.104 6.84 18.104 17.080s-7.25 17.060-18.104 17.060h-470.344c-10.854 0-18.104-6.82-18.104-17.060s7.25-17.080 18.104-17.080zM307.548 618.66h470.344c10.854 0 18.104 6.84 18.104 17.080s-7.25 17.060-18.104 17.060h-470.344c-10.854 0-18.104-6.82-18.104-17.060s7.25-17.080 18.104-17.080z" />
<glyph unicode="&#xe921;" glyph-name="i-delivery1" horiz-adv-x="1292" d="M473.795 107.008c-23.674 0-43.057-19.188-43.057-42.642 0-23.43 19.383-42.618 43.057-42.618 23.698 0 43.081 19.188 43.081 42.618 0 23.454-19.383 42.642-43.081 42.642zM1033.752 107.008c-23.698 0-43.081-19.188-43.081-42.642 0-23.43 19.383-42.618 43.081-42.618s43.081 19.188 43.081 42.618c0 23.454-19.383 42.642-43.081 42.642zM969.143 256.195h-43.081c-12.922 0-21.528-8.533-21.528-21.309 0-12.8 8.606-21.333 21.528-21.333h43.081c12.922 0 21.528 8.533 21.528 21.333 0 12.776-8.606 21.309-21.528 21.309zM646.095 469.309h-301.519c-12.922 0-21.528-8.533-21.528-21.309s8.606-21.309 21.528-21.309h301.519c12.922 0 21.528 8.533 21.528 21.309s-8.606 21.309-21.528 21.309zM355.352 829.489c-10.776 6.388-23.698 4.267-30.159-6.388l-114.127-170.496-66.779 66.072c-3.817 3.94-9.157 6.386-15.067 6.386s-11.251-2.446-15.062-6.381l-0.005-0.006c-3.982-3.741-6.463-9.042-6.463-14.921s2.481-11.18 6.452-14.911l0.011-0.010 86.138-85.26c3.606-3.937 8.769-6.396 14.507-6.396 0.197 0 0.393 0.003 0.589 0.009l-0.029-0.001c8.631 0 15.092 4.267 17.237 10.654l129.219 191.805c6.461 10.679 4.315 23.454-6.461 29.842zM1264.201 300.934l-83.992 34.109-53.858 213.114c-6.461 29.842-32.305 49.030-62.44 49.030h-202.459v63.927c0 23.454-19.383 42.642-43.057 42.642h-345.576c0.634 7.022 0.975 14.117 0.975 21.309 0 129.999-105.521 234.447-236.885 234.447-131.389 0-236.91-104.448-236.91-234.447 0-122.831 94.184-222.793 215.357-233.472v-405.918c0-23.43 19.383-42.618 43.081-42.618h87.991c10.338-60.27 63.634-106.545 127.366-106.545s117.029 46.275 127.39 106.545h305.201c10.313-60.27 63.634-106.545 127.366-106.545s117.029 46.275 127.366 106.545h88.015c23.674 0 43.057 19.188 43.057 42.618v174.763c0 19.188-10.776 34.133-27.989 40.497zM818.395 575.878v-21.309c0-106.569-86.162-191.829-193.829-191.829h-366.129v127.878c18.53 2.048 36.547 6.095 53.809 11.995 34.089 11.405 63.365 29.166 87.779 52.051l-0.129-0.12h289.28c12.922 0 21.528 8.533 21.528 21.333 0 12.776-8.606 21.309-21.528 21.309h-253.074c12.318 18.357 22.264 39.617 28.705 62.35l0.382 1.577h353.207v-85.236zM43.081 725.065c0 106.545 86.138 191.805 193.829 191.805 107.666 0 193.829-85.236 193.829-191.805 0-11.752-1.122-23.211-3.121-34.377-0.468-1.126-0.88-2.465-1.168-3.848l-0.026-0.15c-4.873-24.788-14.030-46.784-26.743-66.247l0.436 0.711c-0.707-1.097-1.39-2.219-2.121-3.316l-1.219-1.707c-1.738-2.528-3.1-4.41-4.495-6.265l0.351 0.487-0.853-1.122c-1.56-2.048-3.17-4.072-4.803-6.071l-0.805-0.951c-2.143-2.556-4.103-4.778-6.113-6.953l0.116 0.127-0.171-0.171c-4.419-1.939-7.877-5.388-9.778-9.681l-0.048-0.12c-0.683-0.658-1.365-1.341-2.097-1.95-2.137-1.949-4.479-3.981-6.869-5.957l-0.324-0.26-0.512-0.463c-2.292-1.853-4.632-3.657-7.022-5.437-0.829-0.634-1.707-1.219-2.56-1.829l-4.34-3.048c-1.463-0.975-2.926-1.877-4.389-2.828l-2.682-1.707c-0.833-0.548-2.506-1.541-4.195-2.51l-0.925-0.489-2.048-1.17c-0.864-0.531-2.74-1.545-4.634-2.529l-1.096-0.518-1.487-0.731c-0.957-0.542-3.054-1.57-5.171-2.561l-1.216-0.511-0.658-0.293c-11.874-5.364-24.381-9.557-37.352-12.483l-2.097-0.488c-8.25-1.848-18.067-3.244-28.086-3.895l-0.586-0.030c-1.219-0.098-2.389-0.195-3.608-0.244-2.758-0.145-6.022-0.233-9.304-0.244h-0.034c-107.666 0-193.829 85.26-193.829 191.829zM473.795-20.87c-47.372 0-86.138 38.351-86.138 85.236s38.766 85.26 86.138 85.26c47.397 0 86.162-38.376 86.162-85.26s-38.766-85.236-86.162-85.236zM1033.752-20.87c-47.372 0-86.138 38.351-86.138 85.236s38.766 85.26 86.138 85.26c47.372 0 86.138-38.376 86.138-85.26s-38.766-85.236-86.138-85.236zM1249.134 85.675h-88.015c-7.266 42.423-35.816 77.873-74.289 95.183l-2.584 1.146c-0.536 0.244-1.073 0.439-1.634 0.658-0.575 0.281-1.968 0.841-3.374 1.376l-0.844 0.282-1.146 0.414c-0.689 0.293-2.276 0.841-3.877 1.358l-0.902 0.252-1.048 0.317c-2.744 0.892-6.442 1.86-10.204 2.659l-0.816 0.145-1.243 0.268c-0.812 0.195-2.466 0.502-4.13 0.776l-0.746 0.102-1.414 0.244c-0.926 0.154-2.555 0.361-4.192 0.536l-0.562 0.049-1.609 0.171c-1.112 0.119-2.773 0.249-4.441 0.349l-0.362 0.017-1.585 0.122c-1.904 0.098-4.133 0.154-6.376 0.154s-4.472-0.056-6.687-0.167l0.311 0.012-1.585-0.122c-2.030-0.117-3.691-0.247-5.342-0.408l0.539 0.043-1.609-0.171-4.73-0.61-1.463-0.244c-1.609-0.244-3.243-0.536-4.827-0.853l-1.268-0.244c-1.658-0.366-3.316-0.731-4.949-1.146l-1.097-0.293c-2.54-0.64-4.194-1.117-5.834-1.627l0.884 0.237-1.048-0.317c-1.609-0.488-3.194-1.048-4.779-1.609l-1.17-0.414c-2.253-0.818-3.646-1.378-5.027-1.962l0.809 0.304c-0.536-0.219-1.097-0.414-1.634-0.658l-2.56-1.146c-38.498-17.31-67.048-52.76-74.313-95.183h-305.176c-7.266 42.423-35.84 77.873-74.313 95.183l-2.56 1.146c-0.536 0.244-1.097 0.439-1.634 0.658-0.502 0.253-1.904 0.813-3.317 1.349l-0.925 0.308-1.146 0.414c-0.677 0.289-2.264 0.837-3.865 1.354l-0.914 0.255-1.048 0.317c-0.725 0.264-2.379 0.741-4.047 1.185l-0.902 0.204-1.097 0.293c-0.763 0.233-2.428 0.629-4.105 0.993l-0.844 0.153-1.268 0.244c-0.803 0.194-2.448 0.5-4.103 0.775l-0.748 0.103-1.438 0.244c-0.916 0.153-2.536 0.36-4.165 0.536l-0.565 0.050-1.609 0.171c-1.112 0.119-2.773 0.249-4.441 0.349l-0.362 0.017-1.585 0.122c-1.904 0.098-4.133 0.154-6.376 0.154s-4.472-0.056-6.687-0.167l0.311 0.012-1.609-0.122c-2.024-0.117-3.676-0.248-5.319-0.408l0.54 0.043-1.609-0.171c-1.585-0.171-3.17-0.366-4.754-0.61l-1.438-0.244c-2.393-0.364-4.039-0.662-5.674-0.992l0.823 0.138-1.243-0.244c-1.658-0.366-3.316-0.731-4.949-1.146l-1.122-0.293c-2.579-0.651-4.233-1.128-5.874-1.636l0.925 0.247-1.048-0.317c-1.609-0.488-3.17-1.048-4.779-1.609l-1.146-0.414c-2.285-0.831-3.679-1.39-5.060-1.974l0.842 0.316c-0.561-0.219-1.097-0.414-1.634-0.658l-2.584-1.146c-38.473-17.31-67.048-52.76-74.289-95.159h-87.991v234.423h366.129c131.365 0 236.885 104.424 236.885 234.447h202.459c10.752 0 19.383-8.533 21.528-17.067l49.054-196.072h-158.891c-15.067 0-27.989 12.8-27.989 27.721v100.157c0 12.8-8.631 21.309-21.553 21.309s-21.528-8.533-21.528-21.309v-100.157c0-38.376 32.305-70.339 71.070-70.339h178.761l94.769-36.23v-176.908z" />
<glyph unicode="&#xe922;" glyph-name="i-card" horiz-adv-x="1324" d="M704.612 250.917h352.281c13.237 0 22.028 8.317 22.028 20.83v187.742c0 12.488-8.816 20.855-22.028 20.855h-352.281c-13.237 0-22.028-8.342-22.028-20.855v-187.717c0-12.488 8.816-20.83 22.028-20.83zM726.615 438.609h308.274v-145.982h-308.274v145.982zM110.092 522.028h176.153c13.212 0 22.028 8.342 22.028 20.855 0 12.488-8.816 20.855-22.028 20.855h-176.153c-13.212 0-22.004-8.342-22.004-20.855s8.791-20.855 22.004-20.855zM374.309 522.028h176.153c13.237 0 22.028 8.342 22.028 20.855 0 12.488-8.816 20.855-22.028 20.855h-176.153c-13.212 0-22.004-8.342-22.004-20.855s8.791-20.855 22.004-20.855zM110.092 438.609h286.27c13.212 0 22.028 8.342 22.028 20.855 0 12.488-8.816 20.855-22.028 20.855h-286.245c-13.237 0-22.028-8.342-22.028-20.855s8.791-20.855 22.004-20.855zM550.462 480.318h-66.060c-13.212 0-22.004-8.342-22.004-20.855s8.791-20.855 22.004-20.855h66.060c13.237 0 22.028 8.342 22.028 20.855 0 12.488-8.816 20.855-22.028 20.855zM1301.304 738.916c-14.214 17.78-35.302 29.549-59.175 31.254l-0.267 0.015-52.848 6.069v100.302c0 45.88-39.636 83.419-88.064 83.419h-1012.886c-48.453 0-88.064-37.538-88.064-83.419v-667.348c0-37.688 26.724-69.707 63.088-79.972-1.099-42.209 32.593-78.823 77.824-82.719l1026.073-108.444c44.057 0 83.668 31.294 88.089 70.931l66.060 669.421c0.26 2.395 0.409 5.173 0.409 7.986 0 20.238-7.686 38.681-20.297 52.57l0.058-0.065zM44.032 813.993h1100.925v-125.153h-1100.9v125.128zM88.064 918.266h1012.886c24.226 0 44.032-18.782 44.032-41.709v-20.855h-1100.925v20.855c0 22.928 19.806 41.709 44.007 41.709zM44.032 209.208v437.947h1100.925v-437.947c0-22.953-19.806-41.709-44.007-41.709h-1012.861c-24.226 0-44.057 18.757-44.057 41.709zM1277.078 686.767l-66.011-669.421c-2.223-22.953-24.226-39.636-48.453-37.538l-1015.084 108.419c-22.028 2.098-37.438 18.782-39.636 37.563h993.030c48.453 0 88.089 37.538 88.089 83.419v527.585l50.651-4.171c10.989 0 22.004-6.244 28.622-14.586 6.594-8.342 10.989-20.855 8.791-31.294z" />
<glyph unicode="&#xe923;" glyph-name="left-arr" horiz-adv-x="717" d="M324.506 448l391.168-391.168-120.73-120.832-512 512 512 512 120.832-120.832z" />
<glyph unicode="&#xe924;" glyph-name="right-arr" horiz-adv-x="717" d="M392.294 448l-391.168-391.168 120.73-120.832 512 512-512 512-120.832-120.832z" />
<glyph unicode="&#xe925;" glyph-name="i-share" horiz-adv-x="1078" d="M850.944 302.053c-50.122 0-95.286-21.127-127.299-54.811l-374.191 183.242c1.24 8.623 2.156 17.3 2.156 26.301 0 8.731-0.862 17.246-2.048 25.654l373.652 181.14c32.030-34.042 77.376-55.242 127.673-55.242 0.020 0 0.040 0 0.060 0h-0.003c97.094 0 175.805 78.71 175.805 175.805s-78.71 175.805-175.805 175.805c-97.094 0-175.805-78.71-175.805-175.805v0c0-8.731 0.808-17.246 2.048-25.654l-373.598-181.14c-32.030 34.042-77.376 55.242-127.673 55.242-0.020 0-0.040 0-0.060 0h0.003c-97.094 0-175.805-78.71-175.805-175.805s78.71-175.805 175.805-175.805v0c50.054 0.007 95.202 21.009 127.118 54.678l0.074 0.079 374.245-183.242c-1.293-8.569-2.156-17.246-2.156-26.247 0-97.094 78.71-175.805 175.805-175.805s175.805 78.71 175.805 175.805v0c0 0.016 0 0.035 0 0.054 0 97.064-78.686 175.751-175.751 175.751-0.019 0-0.038 0-0.057 0h0.003z" />
<glyph unicode="&#xe926;" glyph-name="star-gold" horiz-adv-x="1103" d="M1054.72 610.895l-303.577 28.042c-19.595 1.766-35.938 14.087-43.428 31.171l-0.132 0.337-108.702 257.654c-17.487 42.535-79.242 42.535-96.65 0l-107.914-257.654c-7.408-17.554-23.826-29.966-43.303-31.496l-0.178-0.011-303.734-28.042c-26.397-2.159-47.002-24.114-47.002-50.882 0-15.305 6.736-29.037 17.405-38.392l228.883-196.501c14.809-12.761 20.874-31.508 16.542-50.176l-68.766-275.535c-10.398-43.323 37.415-79.084 77.43-56.162l253.243 145.487c7.629 4.413 16.783 7.017 26.545 7.017s18.916-2.604 26.805-7.155l-0.26 0.138 253.243-145.487c40.015-22.922 87.906 11.894 77.43 56.162l-67.899 275.535c-0.884 3.523-1.391 7.568-1.391 11.732 0 15.399 6.937 29.178 17.857 38.382l0.075 0.062 228.903 196.45c33.083 29.775 13.863 85.071-31.35 89.324z" />
<glyph unicode="&#xe927;" glyph-name="star-grey" horiz-adv-x="1103" d="M1054.72 610.895l-303.577 28.042c-19.595 1.766-35.938 14.087-43.428 31.171l-0.132 0.337-108.702 257.654c-17.487 42.535-79.242 42.535-96.65 0l-107.914-257.654c-7.408-17.554-23.826-29.966-43.303-31.496l-0.178-0.011-303.734-28.042c-26.397-2.159-47.002-24.114-47.002-50.882 0-15.305 6.736-29.037 17.405-38.392l228.883-196.501c14.809-12.761 20.874-31.508 16.542-50.176l-68.766-275.535c-10.398-43.323 37.415-79.084 77.43-56.162l253.243 145.487c7.629 4.413 16.783 7.017 26.545 7.017s18.916-2.604 26.805-7.155l-0.26 0.138 253.243-145.487c40.015-22.922 87.906 11.894 77.43 56.162l-67.899 275.535c-0.884 3.523-1.391 7.568-1.391 11.732 0 15.399 6.937 29.178 17.857 38.382l0.075 0.062 228.903 196.45c33.083 29.775 13.863 85.071-31.35 89.324z" />
<glyph unicode="&#xe928;" glyph-name="checkmark" d="M864 832l-480-480-224 224-160-160 384-384 640 640z" />
<glyph unicode="&#xe929;" glyph-name="i-home" d="M960 376.896l-168 170.688v256h-112v-142.272l-168 170.688-448-455.104v-28.48h112v-284.416h280v170.688h112v-170.688h280v284.416h112z" />
<glyph unicode="&#xe92a;" glyph-name="drop-down-copy-3" horiz-adv-x="2048" d="M1092.403 781.21h-136.806l68.403-60.826 68.403 60.826zM1876.787-37.99c18.115-16.179 42.148-26.067 68.492-26.067 30.426 0 57.771 13.19 76.628 34.165l0.083 0.094c16.195 18.008 26.099 41.955 26.099 68.215 0 30.327-13.21 57.569-34.191 76.285l-0.101 0.088-921.395 819.2c-18.102 16.132-42.101 25.989-68.403 25.989s-50.301-9.857-68.506-26.078l0.103 0.090-921.19-819.2c-21.081-18.804-34.291-46.046-34.291-76.374 0-26.26 9.905-50.207 26.182-68.308l-0.083 0.093c18.936-21.009 46.243-34.158 76.621-34.158 26.29 0 50.279 9.848 68.481 26.056l-0.103-0.090 852.787 758.374 852.787-758.374z" />
<glyph unicode="&#xe92b;" glyph-name="i-insta" d="M512 960c282.336 0 512-229.684 512-512 0-282.295-229.705-512-512-512-282.316 0-512 229.705-512 512 0 282.316 229.684 512 512 512zM634.35 721.067h-244.707c-83.101 0-150.71-67.612-150.71-150.713v-244.707c0-83.105 67.608-150.713 150.71-150.713h244.707c83.108 0 150.716 67.612 150.716 150.713v244.707c0.003 83.101-67.608 150.713-150.716 150.713zM736.614 325.646c0-56.386-45.875-102.257-102.261-102.257h-244.71c-56.383-0.003-102.254 45.871-102.254 102.257v244.707c0 56.383 45.871 102.257 102.254 102.257h244.707c56.386 0 102.261-45.875 102.261-102.257v-244.707h0.003zM512 584.533c-75.286 0-136.533-61.249-136.533-136.536 0-75.284 61.248-136.53 136.533-136.53s136.533 61.246 136.533 136.53c0 75.287-61.248 136.536-136.533 136.536zM512 358.483c-49.36 0-89.521 40.156-89.521 89.517 0 49.364 40.158 89.523 89.521 89.523s89.521-40.159 89.521-89.523c0-49.361-40.161-89.517-89.521-89.517zM648.533 618.667c-8.968 0-17.777-3.631-24.111-9.992-6.364-6.33-10.023-15.143-10.023-24.142 0-8.971 3.662-17.78 10.023-24.142 6.33-6.33 15.143-9.992 24.111-9.992 8.999 0 17.78 3.662 24.142 9.992 6.361 6.361 9.992 15.174 9.992 24.142 0 8.999-3.631 17.811-9.992 24.142-6.33 6.361-15.143 9.992-24.142 9.992z" />
<glyph unicode="&#xe92c;" glyph-name="i-vk" d="M512 960c282.336 0 512-229.684 512-512 0-282.295-229.705-512-512-512-282.316 0-512 229.705-512 512 0 282.316 229.684 512 512 512zM782.17 307.098c-0.661 1.405-1.278 2.571-1.85 3.504-9.475 16.825-27.583 37.476-54.311 61.96l-0.565 0.561-0.283 0.275-0.286 0.282h-0.287c-12.131 11.401-19.812 19.067-23.029 22.991-5.886 7.476-7.205 15.044-3.988 22.711 2.273 5.793 10.81 18.028 25.592 36.72 7.775 9.906 13.933 17.846 18.481 23.828 32.797 42.988 47.016 70.457 42.654 82.42l-1.694 2.795c-1.138 1.683-4.076 3.223-8.81 4.627-4.745 1.401-10.809 1.633-18.204 0.699l-81.89-0.558c-1.327 0.463-3.221 0.42-5.689-0.141-2.465-0.562-3.698-0.843-3.698-0.843l-1.425-0.702-1.131-0.843c-0.948-0.558-1.991-1.539-3.129-2.941-1.132-1.397-2.080-3.037-2.836-4.906-8.916-22.614-19.052-43.64-30.429-63.075-7.014-11.589-13.456-21.633-19.339-30.137-5.875-8.501-10.804-14.765-14.782-18.78-3.984-4.019-7.579-7.239-10.808-9.671-3.224-2.433-5.685-3.461-7.389-3.085-1.708 0.376-3.316 0.749-4.839 1.122-2.652 1.683-4.785 3.972-6.394 6.868-1.615 2.897-2.703 6.542-3.272 10.934-0.566 4.395-0.9 8.175-0.996 11.354-0.089 3.175-0.048 7.665 0.144 13.458 0.197 5.796 0.286 9.718 0.286 11.774 0 7.103 0.14 14.812 0.422 23.129 0.287 8.317 0.519 14.906 0.713 19.761 0.193 4.859 0.283 10.001 0.283 15.421s-0.335 9.671-0.996 12.756c-0.653 3.081-1.656 6.072-2.978 8.972-1.33 2.897-3.276 5.137-5.829 6.728-2.559 1.589-5.74 2.849-9.525 3.786-10.048 2.242-22.843 3.454-38.391 3.643-35.257 0.373-57.912-1.871-67.959-6.731-3.981-2.053-7.583-4.858-10.804-8.407-3.413-4.113-3.889-6.358-1.425-6.727 11.376-1.68 19.429-5.699 24.169-12.053l1.708-3.367c1.329-2.429 2.655-6.73 3.983-12.896 1.326-6.166 2.181-12.988 2.558-20.46 0.946-13.645 0.946-25.326 0-35.043-0.949-9.721-1.845-17.288-2.701-22.708s-2.134-9.812-3.839-13.175c-1.708-3.364-2.844-5.42-3.414-6.166s-1.043-1.217-1.419-1.401c-2.464-0.931-5.027-1.405-7.679-1.405-2.656 0-5.877 1.31-9.668 3.928s-7.723 6.213-11.799 10.793c-4.076 4.581-8.674 10.982-13.794 19.204-5.116 8.222-10.425 17.94-15.922 29.154l-4.548 8.132c-2.843 5.232-6.728 12.849-11.656 22.846-4.932 10.001-9.291 19.674-13.081 29.019-1.515 3.925-3.791 6.913-6.823 8.969l-1.423 0.843c-0.946 0.746-2.465 1.539-4.548 2.383-2.087 0.843-4.264 1.448-6.54 1.82l-77.911-0.558c-7.962 0-13.364-1.778-16.208-5.33l-1.138-1.68c-0.569-0.936-0.856-2.43-0.856-4.487s0.569-4.58 1.707-7.567c11.374-26.354 23.742-51.771 37.106-76.253s24.976-44.204 34.831-59.147c9.857-14.953 19.904-29.066 30.141-42.332 10.237-13.27 17.014-21.775 20.329-25.511 3.319-3.743 5.927-6.541 7.822-8.41l7.11-6.727c4.549-4.486 11.23-9.859 20.045-16.119 8.817-6.264 18.578-12.43 29.289-18.509 10.712-6.069 23.175-11.022 37.394-14.852 14.217-3.834 28.055-5.373 41.515-4.631h32.701c6.632 0.565 11.656 2.621 15.072 6.169l1.131 1.405c0.761 1.115 1.473 2.848 2.13 5.181 0.665 2.336 0.996 4.909 0.996 7.709-0.194 8.035 0.426 15.276 1.844 21.724 1.417 6.445 3.033 11.305 4.839 14.577 1.806 3.27 3.843 6.029 6.111 8.266 2.273 2.242 3.892 3.6 4.842 4.067 0.944 0.47 1.698 0.789 2.267 0.981 4.549 1.494 9.904 0.047 16.071-4.349 6.162-4.392 11.941-9.815 17.347-16.26 5.403-6.451 11.895-13.689 19.476-21.724 7.586-8.038 14.219-14.013 19.904-17.943l5.685-3.364c3.797-2.245 8.725-4.301 14.793-6.169 6.056-1.868 11.363-2.335 15.919-1.401l72.79 1.119c7.2 0 12.802 1.175 16.776 3.507 3.982 2.336 6.347 4.909 7.11 7.709 0.761 2.802 0.802 5.982 0.144 9.536-0.674 3.546-1.339 6.025-2 7.426z" />
<glyph unicode="&#xe92d;" glyph-name="x" d="M620.772 448l380.701-380.701c30.036-30.037 30.036-78.735 0-108.772s-78.735-30.037-108.772 0l-380.701 380.701-380.701-380.701c-30.036-30.037-78.735-30.037-108.772 0s-30.036 78.735 0 108.772l380.701 380.701-380.701 380.701c-30.036 30.037-30.036 78.735 0 108.772s78.735 30.037 108.772 0l380.701-380.701 380.701 380.701c30.036 30.037 78.735 30.037 108.772 0s30.036-78.735 0-108.772l-380.701-380.701z" />
<glyph unicode="&#xe92e;" glyph-name="google-plus" d="M512 960c282.336 0 512-229.684 512-512 0-282.295-229.705-512-512-512-282.316 0-512 229.705-512 512 0 282.316 229.684 512 512 512zM771.413 488.96v95.573h-40.96v-95.573h-81.92v-47.787h81.92v-95.573h40.96v95.573h81.92v47.787h-81.92zM392.533 475.307v-88.747h125.532c-18.326-51.651-67.669-88.747-125.532-88.747-73.393 0-133.12 59.727-133.12 133.12s59.727 133.12 133.12 133.12c31.816 0 62.433-11.404 86.217-32.126l58.307 66.915c-39.936 34.789-91.232 53.958-144.524 53.958-122.337 0-221.867-99.529-221.867-221.867s99.529-221.867 221.867-221.867c122.337 0 221.867 99.529 221.867 221.867v44.373h-221.867z" />
</font>
</defs>
</svg>
